<?xml version="1.0" encoding="utf-8"?>
<!-- Generator: Adobe Illustrator 14.0.0, SVG Export Plug-In . SVG Version: 6.00 Build 43363)  -->
<!DOCTYPE svg PUBLIC "-//W3C//DTD SVG 1.1//EN" "http://www.w3.org/Graphics/SVG/1.1/DTD/svg11.dtd">
<svg version="1.1" id="Ebene_1" xmlns="http://www.w3.org/2000/svg" xmlns:xlink="http://www.w3.org/1999/xlink" x="0px" y="0px"
	 width="1000px" height="1191px" viewBox="0 0 1000 1191" enable-background="new 0 0 1000 1191" xml:space="preserve">
<rect fill="#FFFFFF" width="1000" height="1191"/>
<linearGradient id="SVGID_1_" gradientUnits="userSpaceOnUse" x1="496.9565" y1="965.2783" x2="572.9908" y2="96.2025">
	<stop  offset="0" style="stop-color:#FFA300"/>
	<stop  offset="1" style="stop-color:#FFFFFF"/>
</linearGradient>
<path fill-rule="evenodd" clip-rule="evenodd" fill="url(#SVGID_1_)" d="M319.952,878.105
	c39.893,38.684,99.342,68.075,167.227,79.976c87.22,13.122,187.543,42.685,259.633-34.201
	c53.128-56.667,152.378-157.149,128.077-241.974c-14.555-116.889-201.796-124.012-91.259-249.432
	c-30.359,17.798-63.883,33.041-89.88,57.299c-15.876,14.816-38.284,14.899-31.617-15.184c9.692-43.723,65.961-72.596,86.447-112.039
	c52.211-100.514-144.86-164.409-71.127-257.209c-73.479,40.412-107.315,86.377-70.981,164.551
	c46.357,99.737-39.556,136.917-120.325,178.946c-9.189-46.394,2.527-90.511-25.184-132.464
	c-31.828-48.187-81.674-87.529-132.607-113.782c37.465,49.089,69.538,98.12,21.274,148.742
	c-50.283,52.735-117.157,91.113-156.543,153.835C122.258,617.965,237.655,798.304,319.952,878.105z"/>
<radialGradient id="SVGID_2_" cx="525.3037" cy="573.9614" r="455.2142" gradientTransform="matrix(0.8166 0 0 0.8166 96.1949 85.3788)" gradientUnits="userSpaceOnUse">
	<stop  offset="0" style="stop-color:#FFEBA9"/>
	<stop  offset="0.5" style="stop-color:#FECC00"/>
	<stop  offset="1" style="stop-color:#F7AF00"/>
</radialGradient>
<path fill-rule="evenodd" clip-rule="evenodd" fill="url(#SVGID_2_)" d="M503,949.386c35.621,5.885,74.714,26.446,119.358,21.241
	c82.963-9.682,103.592-52.448,125.059-79.415c36.493-45.854,93.406-104.062,97.161-163.332c0.021-0.278,0.039-0.557,0.059-0.832
	c0.005-0.095,0.009-0.188,0.014-0.283c4.924-76.913-77.4-121.177-118.802-178.308c-13.35-18.425-13.896-39.177,18.813-83.552
	c-32.896,22.149-53.162,52.844-58.958,83.346c-10.073-6.27-19.65-12.066-28.358-17.308
	c-85.049-51.184,65.702-117.331,67.377-191.314c1.791-79.197-138.71-124.943-76.774-202.896
	c-84.884,83.807,8.851,132.917-4.855,210.404c-2.431,13.716-10.71,27.561-27.283,46.003
	c-40.914,45.529-110.639,62.572-160.836,97.844c-10.381-27.662-0.44-64.992-2.885-104.307
	c-2.741-43.953-26.48-90.676-69.752-126.957c38.816,66.234,35.03,94.89,13.861,118.456
	c-79.55,88.522-239.531,142.114-176.214,306.108c10.819,28.03,72.421,153.374,73.266,154.379
	c39.548,46.976,71.851,75.708,123.609,86.42C416.859,925.083,480.923,945.737,503,949.386z"/>
<path fill-rule="evenodd" clip-rule="evenodd" fill="#FFEC55" d="M627.708,647.662c3.906,0.205,6.923,3.545,6.708,7.45
	c-0.204,3.916-3.545,6.92-7.453,6.714c-3.915-0.207-6.92-3.54-6.711-7.455C620.454,650.458,623.796,647.453,627.708,647.662z"/>
<g>
	<path fill-rule="evenodd" clip-rule="evenodd" fill="#F49F22" d="M343.626,712.118c-22.392,13.8-29.36,43.148-15.557,65.545
		c13.797,22.39,43.143,29.356,65.541,15.559c22.391-13.8,29.359-43.148,15.56-65.542
		C395.376,705.287,366.02,698.319,343.626,712.118z"/>
	<path fill-rule="evenodd" clip-rule="evenodd" fill="#F49F22" d="M630.064,697.025c-7.823-0.412-14.499,5.606-14.918,13.425
		c-0.407,7.826,5.606,14.504,13.429,14.912c7.824,0.409,14.511-5.597,14.915-13.423C643.9,704.111,637.889,697.438,630.064,697.025z
		"/>
	<path fill-rule="evenodd" clip-rule="evenodd" fill="#F49F22" d="M676.896,693.54c-9.225-0.481-17.098,6.606-17.584,15.815
		c-0.482,9.225,6.602,17.101,15.825,17.58c9.222,0.491,17.091-6.598,17.577-15.817C693.196,701.896,686.111,694.022,676.896,693.54z
		"/>
	<path fill-rule="evenodd" clip-rule="evenodd" fill="#F49F22" d="M664.11,628.029c3.377-4.378,2.561-10.653-1.814-14.029
		c-4.369-3.378-10.649-2.566-14.02,1.807c-3.383,4.378-2.571,10.658,1.802,14.031C654.448,633.215,660.728,632.4,664.11,628.029z"/>
	<path fill-rule="evenodd" clip-rule="evenodd" fill="#F49F22" d="M709.776,610.434c-3.897-0.205-7.252,2.796-7.453,6.712
		c-0.207,3.911,2.798,7.255,6.709,7.458c3.919,0.204,7.255-2.801,7.461-6.717C716.699,613.978,713.688,610.635,709.776,610.434z"/>
	<path fill-rule="evenodd" clip-rule="evenodd" fill="#F49F22" d="M569.926,668.72c-3.099-2.397-7.564-1.82-9.956,1.277
		c-2.393,3.108-1.817,7.558,1.282,9.952c3.104,2.398,7.558,1.824,9.949-1.28C573.595,675.569,573.021,671.109,569.926,668.72z"/>
	<path fill-rule="evenodd" clip-rule="evenodd" fill="#F49F22" d="M612.72,632.16c-3.103-2.396-7.558-1.818-9.954,1.28
		c-2.392,3.103-1.816,7.558,1.286,9.952c3.101,2.396,7.554,1.819,9.945-1.283C616.395,639.008,615.826,634.554,612.72,632.16z"/>
	<path fill-rule="evenodd" clip-rule="evenodd" fill="#F49F22" d="M465.796,610.73c-6.405-0.334-11.864,4.593-12.207,10.994
		c-0.339,6.402,4.582,11.863,10.985,12.201c6.399,0.338,11.872-4.586,12.205-10.984C477.118,616.536,472.198,611.076,465.796,610.73
		z"/>
	<path fill-rule="evenodd" clip-rule="evenodd" fill="#F49F22" d="M368.591,600.295c7.7-4.744,10.093-14.83,5.354-22.526
		c-4.742-7.69-14.833-10.083-22.526-5.343c-7.703,4.74-10.095,14.826-5.354,22.523C350.812,602.641,360.901,605.037,368.591,600.295
		z"/>
	<path fill-rule="evenodd" clip-rule="evenodd" fill="#F49F22" d="M400.726,656.328c6.4,0.338,11.868-4.579,12.206-10.984
		c0.333-6.402-4.583-11.861-10.985-12.201c-6.407-0.334-11.865,4.582-12.199,10.988C389.41,650.533,394.326,656.002,400.726,656.328
		z"/>
	<path fill-rule="evenodd" clip-rule="evenodd" fill="#F49F22" d="M515.634,564.184c-5.458,3.36-7.161,10.521-3.791,15.976
		c3.363,5.462,10.513,7.156,15.968,3.798c5.461-3.367,7.162-10.522,3.797-15.982C528.239,562.519,521.085,560.82,515.634,564.184z"
		/>
	<path fill-rule="evenodd" clip-rule="evenodd" fill="#F49F22" d="M398.718,593.309c-5.456,3.362-7.157,10.517-3.791,15.971
		c3.365,5.46,10.521,7.156,15.976,3.803c5.456-3.369,7.154-10.522,3.79-15.978C411.332,591.635,404.178,589.943,398.718,593.309z"/>
</g>
<linearGradient id="SVGID_3_" gradientUnits="userSpaceOnUse" x1="171.6274" y1="381.0459" x2="863.3843" y2="129.267">
	<stop  offset="0" style="stop-color:#FFEBA9"/>
	<stop  offset="0.5" style="stop-color:#FECC00"/>
	<stop  offset="1" style="stop-color:#F7AF00"/>
</linearGradient>
<path fill-rule="evenodd" clip-rule="evenodd" fill="url(#SVGID_3_)" d="M556.709,326.688c-0.414,7.83-7.087,13.843-14.921,13.425
	c-7.818-0.409-13.832-7.086-13.423-14.915c0.419-7.818,7.093-13.83,14.921-13.42C551.103,312.185,557.12,318.868,556.709,326.688z
	 M800.39,355.319c-4.611-0.246-8.549,3.299-8.79,7.911c-0.242,4.604,3.304,8.54,7.914,8.786c4.609,0.244,8.545-3.302,8.787-7.914
	C808.544,359.497,804.998,355.559,800.39,355.319z M506.84,241.119c-3.105-2.393-7.558-1.819-9.952,1.277
	c-2.389,3.11-1.819,7.564,1.28,9.959c3.104,2.389,7.562,1.816,9.947-1.284C510.513,247.968,509.945,243.511,506.84,241.119z
	 M541.944,187.794c2.184,1.682,5.323,1.276,7.017-0.914c1.682-2.185,1.274-5.326-0.908-7.008c-2.182-1.694-5.327-1.288-7.017,0.902
	C539.349,182.958,539.755,186.098,541.944,187.794z M540.177,276.579c3.915,0.208,7.251-2.799,7.458-6.71
	c0.207-3.915-2.793-7.254-6.708-7.458c-3.912-0.207-7.25,2.802-7.454,6.711C533.268,273.034,536.265,276.376,540.177,276.579z
	 M875.446,308.191c-3.914-0.205-7.256,2.805-7.455,6.717c-0.204,3.914,2.796,7.249,6.71,7.457c3.911,0.202,7.251-2.803,7.462-6.715
	C882.367,311.738,879.357,308.396,875.446,308.191z M855.228,264.2c-3.103-2.392-7.561-1.816-9.954,1.282
	c-2.392,3.1-1.822,7.551,1.278,9.95c3.107,2.393,7.563,1.82,9.949-1.286C858.902,271.046,858.321,266.594,855.228,264.2z
	 M898.021,227.641c-3.103-2.392-7.556-1.819-9.951,1.282c-2.395,3.104-1.821,7.562,1.285,9.952c3.096,2.389,7.554,1.82,9.941-1.276
	C901.693,234.49,901.118,230.034,898.021,227.641z M456.608,128.756c-3.886-0.201-7.211,2.791-7.407,6.678
	c-0.214,3.888,2.777,7.208,6.673,7.417c3.888,0.203,7.209-2.783,7.418-6.678C463.494,132.286,460.496,128.96,456.608,128.756z
	 M267.658,255.803c-3.418,2.106-4.478,6.588-2.369,10.001c2.099,3.421,6.582,4.482,9.998,2.377
	c3.415-2.105,4.486-6.583,2.373-10.003C275.552,254.761,271.079,253.703,267.658,255.803z M372.241,87.874
	c-1.188,0.73-1.554,2.286-0.833,3.471c0.742,1.192,2.289,1.556,3.485,0.825c1.18-0.731,1.552-2.29,0.815-3.475
	C374.976,87.512,373.422,87.14,372.241,87.874z M241.341,172.513c-1.709-0.09-3.17,1.224-3.257,2.932
	c-0.092,1.707,1.22,3.168,2.931,3.253c1.704,0.095,3.17-1.217,3.258-2.932C244.361,174.065,243.05,172.602,241.341,172.513z
	 M194.025,395.357c-6.406-0.333-11.861,4.583-12.208,10.986c-0.329,6.408,4.591,11.871,10.986,12.197
	c6.404,0.342,11.874-4.58,12.208-10.979C205.345,401.162,200.43,395.694,194.025,395.357z M800.932,159.667
	c-5.456,3.363-7.158,10.514-3.796,15.971c3.366,5.464,10.519,7.161,15.978,3.8c5.465-3.359,7.154-10.52,3.79-15.979
	C813.54,158.002,806.388,156.301,800.932,159.667z M311.548,182.896c-1.458,0.897-1.913,2.812-1.015,4.268
	c0.892,1.451,2.805,1.908,4.261,1.012c1.458-0.897,1.913-2.811,1.015-4.268C314.909,182.452,313,181.994,311.548,182.896z"/>
<radialGradient id="SVGID_4_" cx="518.5449" cy="565.2295" r="469.6594" gradientTransform="matrix(0.8166 0 0 0.8166 96.1949 85.3788)" gradientUnits="userSpaceOnUse">
	<stop  offset="0" style="stop-color:#F2954C"/>
	<stop  offset="0.5" style="stop-color:#EB7007"/>
	<stop  offset="1" style="stop-color:#D25A18"/>
</radialGradient>
<path fill-rule="evenodd" clip-rule="evenodd" fill="url(#SVGID_4_)" d="M629.039,970.956
	c85.224-9.941,106.406-53.871,128.458-81.576c42.495-53.396,111.959-123.093,98.232-192.214
	c1.148-69.503-78.32-112.267-116.979-166.372c-13.151-18.419-12.221-39.092,26.599-83.145
	c-38.235,22.411-74.271,51.592-82.283,82.632l-0.002,0.008c-6.324-3.865-12.389-7.523-18.089-10.946
	c-67.434-40.503,74.863-112.335,76.58-188.323c1.833-81.349-142.471-128.337-78.862-208.407
	c-139.537,85.812,23.137,173.701-56.332,262.139c-37.993,42.286-97.212,59.354-143.518,87.793
	c-5.802-26.601,6.655-60.149,0.377-99.227c-7.694-47.894-55.418-107.493-109.802-147.207
	c52.227,72.322,50.719,103.519,28.332,129.096c-84.124,96.067-266.024,153.72-175.107,332.648
	c9.468,18.637,45.174,77.879,71.985,121.356c-19.138-39.096-51.13-105.467-58.644-124.929
	c-63.317-163.994,96.664-217.586,176.214-306.108c21.169-23.566,24.956-52.222-13.861-118.456
	c43.272,36.281,67.012,83.004,69.752,126.957c2.445,39.315-7.496,76.646,2.885,104.307c50.197-35.272,119.922-52.315,160.836-97.844
	c16.573-18.442,24.853-32.287,27.283-46.003c13.706-77.487-80.028-126.597,4.855-210.404
	c-61.936,77.952,78.565,123.698,76.774,202.896c-1.675,73.983-152.426,140.13-67.377,191.314
	c8.708,5.241,18.285,11.038,28.358,17.308c5.796-30.501,26.063-61.197,58.958-83.346c-32.709,44.375-32.163,65.126-18.813,83.552
	c41.401,57.131,123.726,101.395,118.802,178.308l-0.014,0.283c-0.02,0.275-0.038,0.554-0.059,0.832
	c-3.755,59.271-60.668,117.478-97.161,163.332c-21.467,26.967-42.096,69.733-125.059,79.415c-1.612,0.188-3.215,0.333-4.816,0.455
	C621.26,971.42,625.082,971.418,629.039,970.956z"/>
<g>
	<path fill-rule="evenodd" clip-rule="evenodd" d="M666.803,812.708c6.216-11.321,12.328-22.451,16.901-33.355
		c12.34-29.416,18.669-63.227,15.971-95.879c-2.404-29.073-11.961-57.25-30.795-80.657c-13.469-16.737-34.785-29.191-57.979-37.249
		h-0.015c-20.237-7.029-41.968-10.725-61.168-11.016c19.511,13.98,37.383,37.599,50.122,72.079
		c-63.806-67.59-132.118-63.682-176.129,22.65c-0.68-28.94,9.224-52.777,23.581-70.771c-0.281,0.129-0.568,0.259-0.845,0.388
		c-37.782,17.658-67.691,51.389-84.372,89.962c-6.683,15.458-11.246,31.704-13.353,48.02c-3.885,3.285-7.558,6.977-10.933,11.091
		c-26.009,31.707-24.878,75.651,2.527,98.133c13.795,11.317,31.624,15.033,49.246,11.896c9.077,9.284,18.945,17.471,29.25,26.015
		c3.662,3.037,7.373,6.123,11.039,9.235c-1.812-1.025-3.619-2.06-5.414-3.108c-37.214-21.747-80.421-8.303-60.406,56.681
		c12.195,39.598,60.229,83.111,110.734,112.231c0.654,4.749,0.624,10.286-4.889,16.018c-7.533,7.832-22.448,16.272-34.319,22.989
		c-8.135,4.604-14.907,8.436-17.638,11.185c-7.412,7.468-10.739,15.65-10.685,23.431c0.042,6.054,2.123,11.791,5.915,16.722
		c3.683,4.788,8.983,8.801,15.582,11.558c12.573,5.25,30.022,5.975,49.997-1.312c9.178-3.347,22.268-8.871,36.094-16.845
		c10.024-5.78,20.424-12.844,29.992-21.291c10.372-9.154,19.658-18.891,27.806-28.764c2.297,0.01,4.523-0.07,6.659-0.266
		c0.444-0.04,0.887-0.096,1.332-0.143c5.291,0.507,10.295,0.58,14.927,0.155c33.998-3.119,65.862-22.001,76.274-60.394
		c12.001-36.984,16.065-110.998-25.416-118.426c-3.458-5.354-6.229-10.798-5.559-16.63
		C643.316,855.479,655.244,833.755,666.803,812.708z"/>
	<path fill-rule="evenodd" clip-rule="evenodd" fill="#F6D7A5" d="M598.92,683.948c-28.625-47.807-85.352-66.512-126.672-41.769
		c-25.215,15.099-38.876,42.891-39.192,73.126c-0.441-0.39-0.875-0.785-1.335-1.162c-23.341-19.148-60.233-12.775-82.388,14.229
		c-22.151,27.005-21.188,64.432,2.153,83.579s60.237,12.774,82.388-14.229c6.762-8.243,11.358-17.459,13.833-26.829
		c0.504,0.894,1.018,1.785,1.549,2.672c28.625,47.807,85.351,66.511,126.673,41.769C617.251,790.591,627.547,731.757,598.92,683.948
		z"/>
	<path fill-rule="evenodd" clip-rule="evenodd" fill="#F4BD1A" d="M479.85,654.645c35.522-21.271,84.286-5.191,108.895,35.906
		c24.609,41.1,15.757,91.677-19.764,112.947c-35.522,21.271-84.286,5.19-108.895-35.906
		C435.477,726.493,444.328,675.914,479.85,654.645L479.85,654.645z M483.627,659.205c-33.715,20.189-42.116,68.194-18.759,107.202
		c23.357,39.008,69.641,54.269,103.357,34.082c33.715-20.188,42.116-68.194,18.759-107.203S517.344,639.018,483.627,659.205z"/>
	<path fill="#C4292C" d="M409.836,729.412c-15.102-3.042-30.203,8.661-33.722,26.132c-3.517,17.472,5.876,34.107,20.978,37.148
		c10.896,2.195,21.789-3.288,28.333-13.072c-4.262,3.813-9.792,5.659-15.325,4.544c-10.112-2.036-16.403-13.176-14.047-24.875
		c2.357-11.7,12.47-19.537,22.582-17.499c5.252,1.058,9.469,4.574,11.983,9.347C428.047,740.189,420.321,731.523,409.836,729.412z
		 M579.897,745.255c-1.365,9.95-6.539,18.772-15.088,23.893c-16.293,9.756-38.661,2.381-49.949-16.47
		c-11.288-18.853-7.229-42.053,9.065-51.81c11.3-6.765,25.516-5.286,36.936,2.538c-18.051-18.531-44.638-24.182-64.926-12.032
		c-24.332,14.57-30.396,49.214-13.539,77.366c16.854,28.151,50.258,39.165,74.59,24.596
		C573.222,783.615,581.308,764.957,579.897,745.255z"/>
	<path fill-rule="evenodd" clip-rule="evenodd" fill="#FFFFFF" d="M367.777,780.884c4.098,0,7.421,3.322,7.421,7.42
		c0,4.097-3.324,7.42-7.421,7.42c-4.096,0-7.42-3.323-7.42-7.42C360.357,784.206,363.681,780.884,367.777,780.884L367.777,780.884z
		 M479.917,756.726c2.365,0,4.281,1.917,4.281,4.281c0,2.363-1.916,4.28-4.281,4.28c-2.364,0-4.281-1.917-4.281-4.28
		C475.636,758.643,477.553,756.726,479.917,756.726L479.917,756.726z M467.382,766.51c4.573,0,8.281,3.709,8.281,8.282
		s-3.708,8.283-8.281,8.283c-4.574,0-8.283-3.71-8.283-8.283S462.808,766.51,467.382,766.51L467.382,766.51z M379.009,772.119
		c2.115,0,3.833,1.718,3.833,3.834c0,2.119-1.718,3.835-3.833,3.835c-2.118,0-3.834-1.716-3.834-3.835
		C375.175,773.837,376.891,772.119,379.009,772.119z"/>
	<path fill="#C4292C" d="M657.146,905.602c-11.67-11.084-26.716-8.431-42.389-3.619c5.811-3.603,11.663-6.956,18.271-8.3
		c-3.061-5.659-5.449-11.532-4.666-18.336c5.662-49.254,60.268-94.941,60.205-156.447c-0.058-58.051-9.868-108.155-74.645-138.29
		c-14.404-6.701-30.901-10.58-48.32-12.055c13.205,14.027,25.056,33.226,34.236,58.076c-63.806-67.59-132.118-63.682-176.129,22.65
		c-0.47-20.02,4.126-37.597,11.754-52.489c-42.592,24.54-70.589,67.456-77.512,113.306c21.585-13.628,47.533-15.772,67.834-4.703
		c-18.415-11.241-42.217-11.165-63.271-0.905c22.159-13.928,49.155-14.869,68.563-1.099c2.914-29.272,16.626-55.356,39.985-70.451
		c43.748-28.271,104.784-7.313,136.295,46.802c31.512,54.115,21.59,120.928-22.16,149.198
		c-39.618,25.603-93.414,10.829-126.62-32.379c10.399,15.416,23.394,27.681,37.646,36.212
		c-17.505-9.148-33.329-24.154-44.824-43.885c-2.037,6-4.847,11.873-8.498,17.452c-6.139,9.379-13.927,16.907-22.611,22.408
		c6.323-4.932,12.114-10.939,17.07-17.958c2.675-3.785,4.972-7.707,6.935-11.705c-2.126,3.543-4.53,6.997-7.249,10.312
		c-9.657,11.772-21.702,20.197-34.431,24.997c13.92,11.949,29.437,21.985,44.847,35.593c4.803,4.242,5.687,12.134,7.596,19.47
		c-0.426-0.134-0.852-0.265-1.278-0.399c-15.408-4.867-48.703-25.019-63.835-20.706c-17.644,5.027-24.721,31.901-15.8,60.012
		c11.998,37.816,58.678,79.313,108.275,107.563c-0.227,7.211,0.292,17.089-8.484,26.215c-13.084,13.604-35.053,21.685-41.04,27.715
		c-26.807,27.008-7.682,60.34,43.21,41.782c15.575-5.681,43.001-16.23,65.312-35.928c8.606-7.6,16.412-16.614,23.418-25.978
		c-9.381-2.129-19.367-5.323-29.664-9.405c20.464,7.148,39.379,10.746,54.217,9.428c33.636-2.985,65.086-22.36,75.388-59.125
		C677.418,972.923,672.65,920.322,657.146,905.602z M589.911,832.203c44.523-28.771,54.622-96.766,22.554-151.839
		c-21.99-37.761-58.104-59.654-92.987-60.416c35.964-0.703,73.799,21.373,96.534,60.416c32.07,55.073,21.972,123.067-22.553,151.839
		c-13.996,9.045-29.732,13.136-45.728,12.785C562.498,844.701,576.95,840.578,589.911,832.203z"/>
	<path fill-rule="evenodd" clip-rule="evenodd" fill="#EC5154" d="M657.146,905.602c-13.329-12.657-31.059-7.398-49.1-1.47
		c18.098-4.586,35.624-7.789,47.865,5.718c14.957,16.498,16.109,71.866,0.35,110.418c-4.868,13.838-12.516,25.018-21.963,33.678
		c14.087-9.854,25.136-24.238,30.481-43.315C677.418,972.923,672.65,920.322,657.146,905.602z"/>
	
		<radialGradient id="SVGID_5_" cx="514.3105" cy="1074.5488" r="131.0466" gradientTransform="matrix(0.8166 0 0 0.8166 96.1949 85.3788)" gradientUnits="userSpaceOnUse">
		<stop  offset="0" style="stop-color:#813D2A"/>
		<stop  offset="0.5393" style="stop-color:#4F0B0A"/>
		<stop  offset="1" style="stop-color:#2F0605"/>
	</radialGradient>
	<path fill-rule="evenodd" clip-rule="evenodd" fill="url(#SVGID_5_)" d="M567.452,1046.603
		c-74.357,0-179.557-90.027-177.308-167.41c72.826,31.768,157.401,51.796,233.355,35.113
		C662.521,966.425,639.321,1046.603,567.452,1046.603z"/>
	<path fill="#DDE1E3" d="M623.499,914.306c-73.012,16.037-153.983-1.855-224.833-31.482c0.25,1.523,0.558,3.055,0.932,4.597
		c4.292,17.65,16.165,33.971,32.978,47.446c0.879-2.801,1.806-5.6,2.827-8.389c0.322,3.872,0.741,7.713,1.249,11.525
		c9.312,6.896,19.955,12.956,31.532,17.962c1.268-4.478,2.713-8.947,4.34-13.401c0.448,5.379,1.084,10.699,1.887,15.958
		c21.728,8.445,46.342,13.23,71.458,12.978c3.446-0.035,6.836-0.171,10.168-0.391c-2.742-9.426-6.135-18.781-10.167-28.013
		c9.233,8.187,17.434,17.058,24.543,26.459c28.622-4.364,51.751-15.776,66.046-31.483
		C633.38,929.786,629.078,921.759,623.499,914.306z"/>
	<path fill="#FFFFFF" d="M466.951,954.734c-11.575-5.005-20.989-9.836-30.3-16.731c9.312,6.896,19.955,12.956,31.532,17.962
		c1.182-4.173,2.531-8.336,4.026-12.488c-0.412-3.332-0.754-6.364-0.916-8.293C469.666,939.638,468.221,950.258,466.951,954.734z
		 M545.868,943.096c3.342,2.962,6.543,6.017,9.61,9.151c-5.018-5.848-10.2-11.463-14.53-15.301
		c4.033,9.23,9.886,23.507,12.627,32.932c-2.711,0.179-11.965,1.116-17.183,1.478c3.147,0.126,6.307,0.175,9.475,0.144
		c3.446-0.035,6.836-0.171,10.168-0.391C553.293,961.683,549.9,952.327,545.868,943.096z"/>
	<path fill="#C9CDCF" d="M623.499,914.306c-62.129,13.646-130.018,2.717-192.534-19.1c63.454,25.076,133.356,39.23,197.889,27.081
		C627.219,919.567,625.441,916.899,623.499,914.306z"/>
	<path fill="#DDE1E3" d="M602.368,982.489c1.393,7.911,2.287,16.026,2.642,24.313c-4.946-9.589-10.479-18.685-16.529-27.26
		c-6.685-1.032-13.48-1.551-20.328-1.462c-2.324,0.029-4.617,0.13-6.879,0.292c1.771,9.001,2.877,18.288,3.284,27.795
		c-4.739-9.187-10.019-17.922-15.773-26.182c-27.343,5.155-48.673,20.362-59.726,41.09c26.19,15.803,53.958,25.527,78.394,25.527
		c36.845,0,60.893-21.076,70.328-48.638C626.963,991.184,614.979,985.906,602.368,982.489z"/>
	<linearGradient id="SVGID_6_" gradientUnits="userSpaceOnUse" x1="473.9019" y1="1006.0449" x2="592.6376" y2="962.8286">
		<stop  offset="0" style="stop-color:#BB5F3F"/>
		<stop  offset="0.5" style="stop-color:#A12116"/>
		<stop  offset="1" style="stop-color:#731012"/>
	</linearGradient>
	<path fill="url(#SVGID_6_)" d="M548.784,979.985c4.257,6.11,8.253,12.482,11.964,19.104c1.149,0.132,2.286,0.265,3.402,0.399
		c-0.561-7.187-1.523-14.236-2.877-21.117c2.262-0.162,4.555-0.263,6.879-0.292c6.848-0.089,13.644,0.43,20.328,1.462
		c4.217,5.978,8.176,12.214,11.868,18.688c1.069-1.394,1.654-3.236,1.654-5.677c0-7.025-4.691-17.841-12.631-27.137
		c-5.999,1.733-12.331,3.127-18.961,4.139c-3.594-4.751-7.467-9.365-11.608-13.826c-2.248,0.994-4.487,2.037-6.717,3.139
		c1.437,4.064,2.758,8.146,3.949,12.241c-3.332,0.22-6.722,0.355-10.168,0.391c-4.954,0.05-9.886-0.104-14.782-0.436
		c-5.688,3.826-11.302,8.044-16.827,12.681c2.605-4.685,5.309-9.17,8.096-13.465c-12.099-1.372-23.893-3.861-35.098-7.303
		c-10.851,9.759-17.482,21.219-17.482,29.576c0,12.537,14.921,9.756,36.635,7.086C517.648,990.03,532.093,983.133,548.784,979.985z"
		/>
	<path fill="#C9CDCF" d="M563.423,1039.223c-23.006,0-48.59-6.59-73.628-17.716c25.973,15.542,53.448,25.096,77.657,25.096
		c31.13,0,53.121-15.046,64.888-36.334C618.029,1027.568,594.779,1039.223,563.423,1039.223z"/>
	<path fill-rule="evenodd" clip-rule="evenodd" fill="#798205" d="M612.727,540.274c51.987-22.345,112.057-27.119,170.781-7.77
		c-69.954-61.261-172.021-63.237-244.03-11.287c40.976-59.845,105.878-101.547,179.082-124.808
		c-24.493-17.814-65.033-37.026-115.063-29.354c-55.221,32.355-84.938,93.201-96.08,147.916
		c-4.615-44.877,6.902-90.65,32.455-131.45c-42.316,27.587-69.451,68.852-73.805,115.555
		c-58.487-37.5-128.994-39.342-181.648,12.933c35.183-10.302,73.546-9.278,110.476,2.14c-46.743,1.051-95.207,25.297-131.841,80.231
		c59.707-42.42,124.888-41.578,185.159-17.011c-14.853,18.123-25.194,42.356-24.5,71.912c44.011-86.332,112.323-90.24,176.129-22.65
		c-12.739-34.48-30.611-58.099-50.122-72.079c19.2,0.291,40.931,3.986,61.168,11.016h0.015
		c23.194,8.058,44.511,20.512,57.979,37.249c1.446,1.799,2.833,3.63,4.173,5.483c18.052,11.319,34.456,25.435,48.462,42.043
		c-1.134-3.669-2.388-7.325-3.791-10.963C698.794,590.278,659.214,555.227,612.727,540.274z"/>
	<path fill-rule="evenodd" clip-rule="evenodd" fill="#A6B206" d="M756.277,519.243c-3.566-2.36-7.229-4.623-11.002-6.765
		c-71.489-40.566-158.458-28.687-216.439,23.354c36.294-66.863,97.502-118.634,171.796-142.24
		c-23.208-16.878-51.707-28.472-99.109-21.203c-50.539,36.937-85.856,93.057-95.694,157.055
		c-9.172-44.651-1.685-91.745,21.712-131.596c-2.751,2.043-5.454,4.184-8.096,6.443c-32.005,27.36-49.569,65.338-51.968,104.297
		c-46.448-34.62-105.935-41.974-153.064-13.602c-2.771,1.669-5.447,3.441-8.043,5.298c39.114-6.341,80.501,2.369,117.239,23.823
		c-50.052-8.91-103.396,7.97-139.108,49.166c-2.277,2.628-4.438,5.316-6.5,8.052c52.927-30.585,118.332-33.226,173.789-6.372
		c-13.693,19.208-23.257,44.98-24.996,57.426c-2.192,15.686-0.67,5.543-0.863,8.299c42.006-82.403,106.36-88.388,167.261-23.872
		c-1.148-3.092-2.397-6.164-3.775-9.215c-9.669-21.422-23.945-39.318-41.13-53.049c19.547,0.122,41.857,3.819,62.601,11.024h0.015
		c20.621,7.164,39.744,17.813,53.202,31.848c16.491,8.456,31.799,19.392,45.279,32.63c-1.313-3.165-2.734-6.307-4.283-9.42
		c-20.494-41.175-57.463-68.713-98.955-78.647C651.783,518.064,704.751,509.678,756.277,519.243z"/>
	<g>
		<path fill-rule="evenodd" clip-rule="evenodd" fill="#798205" d="M300.676,564.627c33.986-15.641,72.842-22.267,113.374-17.228
			c1.156,0.144,2.298,0.33,3.447,0.492c-2.022-0.44-4.056-0.851-6.107-1.221C371.2,539.415,332.609,546.654,300.676,564.627z"/>
		<path fill-rule="evenodd" clip-rule="evenodd" fill="#798205" d="M336.196,495.784c31.071-7.463,68.478-3.856,109.499,12.796
			c1.169,0.474,2.332,0.991,3.496,1.481c-2.08-1.033-4.163-2.039-6.254-3.005C401.883,488.11,364.841,485.237,336.196,495.784z"/>
		<path fill-rule="evenodd" clip-rule="evenodd" fill="#798205" d="M704.576,509.809c-49.78-11.258-98.356-4.331-139.205,16.359
			c43.285-17.667,92.158-23.814,142.485-15.305c1.436,0.243,2.849,0.537,4.274,0.802
			C709.629,511.004,707.113,510.382,704.576,509.809z"/>
		<path fill-rule="evenodd" clip-rule="evenodd" fill="#798205" d="M481.628,531.342c-1.27-39.146,9.929-80.711,35.055-120.679
			c0.718-1.14,1.474-2.252,2.207-3.379c-1.466,1.941-2.904,3.9-4.303,5.889C487.136,452.163,476.749,493.632,481.628,531.342z"/>
	</g>
	<g>
		<path fill-rule="evenodd" clip-rule="evenodd" fill="#BAC61A" d="M612.191,378.675c23.15-8.949,45.934-4.803,61.32-0.36
			c-18.537-7.425-41.298-10.631-71.989-5.925c-38.296,27.988-67.828,67.003-84.186,112.103
			C540.102,440.961,566.649,396.281,612.191,378.675z"/>
		<path fill-rule="evenodd" clip-rule="evenodd" fill="#BAC61A" d="M314.412,494.987c-0.229,0.138-0.45,0.288-0.676,0.427
			c46.982-19.106,102.291-14.205,149.217,9.926C417.211,473.539,360.024,467.527,314.412,494.987z"/>
		<path fill-rule="evenodd" clip-rule="evenodd" fill="#BAC61A" d="M745.275,512.479c-62.197-35.295-136.107-30.881-192.457,5.132
			c59.551-22.84,129.693-25.727,192.895-3.146c2.542,0.909,5.048,1.858,7.521,2.835C750.628,515.642,747.99,514.019,745.275,512.479
			z"/>
		<path fill-rule="evenodd" clip-rule="evenodd" fill="#BAC61A" d="M498.521,528.756c38.106,14.564,70.287,40.291,88.635,74.077
			C568.671,565.528,535.904,539.623,498.521,528.756z"/>
		<path fill-rule="evenodd" clip-rule="evenodd" fill="#BAC61A" d="M521.368,402.927c0.727-0.695,1.474-1.355,2.209-2.035
			c-1.393,1.105-2.771,2.235-4.133,3.4c-26.708,22.831-43.351,53.06-49.526,85.079C478.7,457.333,495.876,427.283,521.368,402.927z"
			/>
		<path fill-rule="evenodd" clip-rule="evenodd" fill="#BAC61A" d="M425.944,638.53c6.485-24.037,17.891-48.492,32.225-71.658
			c-17.055,19.311-29.378,51.208-31.376,65.508C426.4,635.188,426.129,637.155,425.944,638.53z"/>
	</g>
	<path fill-rule="evenodd" clip-rule="evenodd" fill="#9C0104" d="M433.458,600.927c0.643-1.4,1.313-2.778,2.007-4.135
		c-42.592,24.54-70.589,67.456-77.512,113.306c2.732-1.726,5.535-3.266,8.387-4.619c0.175-0.987,0.36-1.972,0.555-2.956
		c-1.471,0.609-2.932,1.262-4.378,1.967c1.48-0.931,2.985-1.799,4.506-2.613C375.094,662.025,398.862,625.244,433.458,600.927z
		 M447.363,869.398c-13.557-14-27.45-24.922-39.985-36.997c-1.574,0.718-3.161,1.388-4.76,1.992
		c13.92,11.949,29.437,21.985,44.847,35.593c0.731,0.646,1.348,1.398,1.916,2.198C448.813,871.171,448.162,870.226,447.363,869.398z
		"/>
	<path fill-rule="evenodd" clip-rule="evenodd" fill="#9C0104" d="M380.502,931.098c-8.781-29.181-1.57-57,16.1-62.125
		c1.303-0.38,2.749-0.558,4.294-0.586c-4.177-0.771-7.929-0.896-10.948-0.036c-17.644,5.027-24.721,31.901-15.8,60.012
		c7.254,22.864,27.193,47.068,52.78,68.884C404.365,975.993,387.07,952.931,380.502,931.098z"/>
	<g>
		<path fill-rule="evenodd" clip-rule="evenodd" fill="#9C0104" d="M531.638,1098.521c-18.13,16.425-39.781,26.708-55.53,33.117
			h0.002c15.575-5.681,43.001-16.23,65.312-35.928c8.606-7.6,16.412-16.614,23.418-25.978c-2.322-0.527-4.68-1.116-7.071-1.771
			C550.127,1078.926,541.426,1089.652,531.638,1098.521z"/>
		<path fill-rule="evenodd" clip-rule="evenodd" fill="#9C0104" d="M628.363,875.347c1.347-11.7,5.455-23.198,10.936-34.755
			c-11.573,20.416-21.562,40.263-23.92,60.662c-0.014,0.12-0.018,0.238-0.03,0.358c5.616-3.464,11.297-6.632,17.681-7.93
			C629.969,888.023,627.58,882.15,628.363,875.347z"/>
	</g>
	<path fill-rule="evenodd" clip-rule="evenodd" fill="#EC5154" d="M688.568,718.899c-0.058-58.051-9.868-108.155-74.645-138.29
		c-4.637-2.156-9.496-4.01-14.527-5.597c72.043,33.364,82.958,88.813,83.021,153.047c0.024,22.943-6.868,43.896-16.253,63.685
		C678.287,769.39,688.596,745.641,688.568,718.899z"/>
	<linearGradient id="SVGID_7_" gradientUnits="userSpaceOnUse" x1="565.4824" y1="1111.252" x2="482.6684" y2="588.3848">
		<stop  offset="0" style="stop-color:#EC5154"/>
		<stop  offset="1" style="stop-color:#C4292C"/>
	</linearGradient>
	<path fill-rule="evenodd" clip-rule="evenodd" fill="url(#SVGID_7_)" d="M640.263,716.963c-1.898-11.639-10.3-21.837-14.148-32.936
		c-3.368-9.717-5.726-19.784-9.726-29.278c-9.066-21.51-28.626-34.858-48.73-45.168c-19.864-10.188-42.577-23.894-65.549-24.009
		c-16.61-0.084-23.481,19.626-26.858,32.796c-7.938,13.201-23.368,18.202-36.055,25.446c-15.931,9.097-22.092,23.332-29.337,39.336
		c-1.771,3.91-4.023,7.346-6.514,10.545c9.974,0.694,19.532,3.876,27.734,9.695c2.914-29.272,16.626-55.356,39.985-70.451
		c43.748-28.271,104.784-7.313,136.295,46.802c31.512,54.115,21.59,120.928-22.16,149.198
		c-39.618,25.603-93.414,10.829-126.62-32.379c10.399,15.416,23.394,27.681,37.646,36.212
		c-17.505-9.148-33.329-24.154-44.824-43.885c-2.037,6-4.847,11.873-8.498,17.452c-6.139,9.379-13.927,16.907-22.611,22.408
		c6.323-4.932,12.114-10.939,17.07-17.958c2.675-3.785,4.972-7.707,6.935-11.705c-2.126,3.543-4.53,6.997-7.249,10.312
		c-6.012,7.327-12.953,13.344-20.403,18.012c6.89,6.785,14.13,13.43,21.13,20.498c14.052,14.189,28.255,30.628,40.125,48.317
		c26.413,7.346,51.939,12.727,73.178,14.832c0.545-2.413,1.394-4.85,2.65-7.317c4.702-9.24,13.121-15.794,18.351-24.678
		c5.634-9.57,7.926-20.738,13.216-30.537c3.269-6.051,6.968-12.09,10.869-18.155c-0.889,0.626-1.787,1.242-2.705,1.835
		c-13.996,9.045-29.732,13.136-45.728,12.785c14.767-0.287,29.219-4.41,42.18-12.785c3.573-2.309,6.921-4.873,10.047-7.661
		c8.891-13.503,18.415-27.193,26.086-41.479c9.793-31.251,5.844-69.343-13.579-102.699c-21.99-37.761-58.104-59.654-92.987-60.416
		c35.964-0.703,73.799,21.373,96.534,60.416c16.456,28.26,21.806,59.92,17.102,87.938
		C639.788,752.236,643.251,735.299,640.263,716.963z M400.493,697.157c-0.349,0.403-0.698,0.805-1.051,1.203
		c9.257,0.323,18.251,2.621,26.346,7.034C418.098,700.7,409.469,697.987,400.493,697.157z M493.65,1055.897
		c-13.706,16.028-31.756,24.455-48.177,36.896c-10.267,7.78-27.034,29.643-5.726,37.057c4.718,1.64,25.949-3.04,30.82-5.23
		c7.326-3.29,14.492-7.179,20.831-12.141c2.81-7.431,5.619-15.136,13.816-17.96c9.73-3.355,14.876-14.6,21.585-22.497
		c3.29-3.875,6.961-7.412,10.645-10.911c-11.794-3.99-24.14-9.192-36.551-15.348C499.351,1048.897,497.05,1051.919,493.65,1055.897z
		"/>
	<path fill-rule="evenodd" clip-rule="evenodd" fill="#F4BD1A" d="M425.532,720.011c-21.003-17.229-54.2-11.495-74.132,12.804
		c-19.93,24.298-19.063,57.974,1.938,75.204c21.003,17.228,54.196,11.492,74.129-12.805c2.249-2.741,4.232-5.603,5.953-8.545
		c-1.348,2.121-2.837,4.193-4.482,6.197c-18.934,23.08-50.467,28.527-70.417,12.16c-19.949-16.365-20.775-48.354-1.839-71.436
		c18.933-23.08,50.468-28.527,70.418-12.162c0.263,0.217,0.521,0.438,0.78,0.661C427.124,721.374,426.344,720.68,425.532,720.011z"
		/>
</g>
</svg>
