<?xml version="1.0" encoding="UTF-8"?>
<!DOCTYPE svg PUBLIC "-//W3C//DTD SVG 1.1//EN" "http://www.w3.org/Graphics/SVG/1.1/DTD/svg11.dtd">
<!-- Creator: CorelDRAW -->
<svg xmlns="http://www.w3.org/2000/svg" xml:space="preserve" width="1000px" height="1000px" style="shape-rendering:geometricPrecision; text-rendering:geometricPrecision; image-rendering:optimizeQuality; fill-rule:evenodd; clip-rule:evenodd"
viewBox="0 0 1000 1000"
 xmlns:xlink="http://www.w3.org/1999/xlink">
 <defs>
  <style type="text/css">
   <![CDATA[
    .str0 {stroke:black;stroke-width:1.56024;stroke-linecap:round;stroke-linejoin:round}
    .str1 {stroke:#B2B2B2;stroke-width:5.58898;stroke-linecap:round;stroke-linejoin:round}
    .fil20 {fill:none}
    .fil21 {fill:black}
    .fil9 {fill:#425401}
    .fil24 {fill:#4C80B5}
    .fil3 {fill:#596E0B}
    .fil17 {fill:#799123}
    .fil2 {fill:#7E1602}
    .fil50 {fill:#801500}
    .fil0 {fill:#9C1C02}
    .fil18 {fill:#BF301F}
    .fil51 {fill:#DA3624}
    .fil23 {fill:white}
    .fil22 {fill:black;fill-rule:nonzero}
    .fil26 {fill:#7E1602;fill-rule:nonzero}
    .fil49 {fill:#9C1C02;fill-rule:nonzero}
    .fil25 {fill:#FF6161;fill-rule:nonzero}
    .fil41 {fill:url(#id0)}
    .fil19 {fill:url(#id1)}
    .fil37 {fill:url(#id2)}
    .fil39 {fill:url(#id3)}
    .fil36 {fill:url(#id4)}
    .fil38 {fill:url(#id5)}
    .fil16 {fill:url(#id6)}
    .fil40 {fill:url(#id7)}
    .fil29 {fill:url(#id8)}
    .fil14 {fill:url(#id9)}
    .fil33 {fill:url(#id10)}
    .fil31 {fill:url(#id11)}
    .fil27 {fill:url(#id12)}
    .fil34 {fill:url(#id13)}
    .fil6 {fill:url(#id14)}
    .fil15 {fill:url(#id15)}
    .fil12 {fill:url(#id16)}
    .fil13 {fill:url(#id17)}
    .fil4 {fill:url(#id18)}
    .fil10 {fill:url(#id19)}
    .fil28 {fill:url(#id20)}
    .fil48 {fill:url(#id21)}
    .fil8 {fill:url(#id22)}
    .fil30 {fill:url(#id23)}
    .fil35 {fill:url(#id24)}
    .fil7 {fill:url(#id25)}
    .fil32 {fill:url(#id26)}
    .fil11 {fill:url(#id27)}
    .fil5 {fill:url(#id28)}
    .fil1 {fill:url(#id29)}
    .fil44 {fill:url(#id30)}
    .fil43 {fill:url(#id31)}
    .fil46 {fill:url(#id32)}
    .fil45 {fill:url(#id33)}
    .fil42 {fill:url(#id34)}
    .fil47 {fill:url(#id35)}
   ]]>
  </style>
  <linearGradient id="id0" gradientUnits="userSpaceOnUse" x1="341.406" y1="245.464" x2="377.973" y2="354.709">
   <stop offset="0" style="stop-color:#BF301F"/>
   <stop offset="1" style="stop-color:#9C1C02"/>
  </linearGradient>
  <linearGradient id="id1" gradientUnits="userSpaceOnUse" xlink:href="#id0" x1="733.969" y1="320.909" x2="696.153" y2="429.79">
  </linearGradient>
  <linearGradient id="id2" gradientUnits="userSpaceOnUse" x1="216.066" y1="327.498" x2="225.525" y2="328.123">
   <stop offset="0" style="stop-color:#FF927D"/>
   <stop offset="1" style="stop-color:#FF6161"/>
  </linearGradient>
  <linearGradient id="id3" gradientUnits="userSpaceOnUse" xlink:href="#id2" x1="341.195" y1="892.352" x2="360.697" y2="894.457">
  </linearGradient>
  <linearGradient id="id4" gradientUnits="userSpaceOnUse" x1="211.114" y1="329.364" x2="231.273" y2="328.211">
   <stop offset="0" style="stop-color:#FF6161"/>
   <stop offset="1" style="stop-color:#BF301F"/>
  </linearGradient>
  <linearGradient id="id5" gradientUnits="userSpaceOnUse" xlink:href="#id4" x1="332.375" y1="892.274" x2="373.943" y2="900.178">
  </linearGradient>
  <linearGradient id="id6" gradientUnits="userSpaceOnUse" x1="651.945" y1="268.421" x2="666.922" y2="273.28">
   <stop offset="0" style="stop-color:#9EB54B"/>
   <stop offset="1" style="stop-color:#799123"/>
  </linearGradient>
  <linearGradient id="id7" gradientUnits="userSpaceOnUse" xlink:href="#id6" x1="244.344" y1="254.021" x2="259.259" y2="248.692">
  </linearGradient>
  <linearGradient id="id8" gradientUnits="userSpaceOnUse" x1="241.579" y1="270.514" x2="293.182" y2="263.451">
   <stop offset="0" style="stop-color:#799123"/>
   <stop offset="1" style="stop-color:#596E0B"/>
  </linearGradient>
  <linearGradient id="id9" gradientUnits="userSpaceOnUse" xlink:href="#id4" x1="331.666" y1="827.518" x2="359.606" y2="859.025">
  </linearGradient>
  <linearGradient id="id10" gradientUnits="userSpaceOnUse" xlink:href="#id8" x1="230.294" y1="122.162" x2="260.903" y2="118.051">
  </linearGradient>
  <linearGradient id="id11" gradientUnits="userSpaceOnUse" xlink:href="#id8" x1="329.163" y1="168.328" x2="336.566" y2="196.552">
  </linearGradient>
  <linearGradient id="id12" gradientUnits="userSpaceOnUse" x1="431.076" y1="670.23" x2="544.653" y2="671.359">
   <stop offset="0" style="stop-color:#7E1602"/>
   <stop offset="1" style="stop-color:#9C1C02"/>
  </linearGradient>
  <linearGradient id="id13" gradientUnits="userSpaceOnUse" xlink:href="#id0" x1="265.146" y1="569.669" x2="387.435" y2="554.924">
  </linearGradient>
  <linearGradient id="id14" gradientUnits="userSpaceOnUse" xlink:href="#id8" x1="771.552" y1="252.05" x2="759.869" y2="279.614">
  </linearGradient>
  <linearGradient id="id15" gradientUnits="userSpaceOnUse" xlink:href="#id2" x1="338.299" y1="832.67" x2="352.914" y2="846.699">
  </linearGradient>
  <linearGradient id="id16" gradientUnits="userSpaceOnUse" xlink:href="#id4" x1="579.475" y1="307.686" x2="596.297" y2="319.204">
  </linearGradient>
  <linearGradient id="id17" gradientUnits="userSpaceOnUse" xlink:href="#id2" x1="584.673" y1="309.353" x2="591.668" y2="315.516">
  </linearGradient>
  <linearGradient id="id18" gradientUnits="userSpaceOnUse" xlink:href="#id8" x1="640.062" y1="280.018" x2="684.363" y2="305.466">
  </linearGradient>
  <linearGradient id="id19" gradientUnits="userSpaceOnUse" xlink:href="#id0" x1="513.612" y1="510.115" x2="586.805" y2="552.55">
  </linearGradient>
  <linearGradient id="id20" gradientUnits="userSpaceOnUse" xlink:href="#id12" x1="367.239" y1="504.534" x2="427.178" y2="497.174">
  </linearGradient>
  <linearGradient id="id21" gradientUnits="userSpaceOnUse" x1="377.748" y1="536.861" x2="372.808" y2="517.139">
   <stop offset="0" style="stop-color:#FF6161"/>
   <stop offset="1" style="stop-color:#6C1C25"/>
  </linearGradient>
  <linearGradient id="id22" gradientUnits="userSpaceOnUse" xlink:href="#id8" x1="721.308" y1="155.401" x2="748.136" y2="170.919">
  </linearGradient>
  <linearGradient id="id23" gradientUnits="userSpaceOnUse" xlink:href="#id8" x1="150.855" y1="268.485" x2="180.962" y2="284.361">
  </linearGradient>
  <linearGradient id="id24" gradientUnits="userSpaceOnUse" xlink:href="#id0" x1="453.613" y1="443.935" x2="425.477" y2="453.987">
  </linearGradient>
  <linearGradient id="id25" gradientUnits="userSpaceOnUse" xlink:href="#id8" x1="787.824" y1="323.444" x2="764.351" y2="335.413">
  </linearGradient>
  <linearGradient id="id26" gradientUnits="userSpaceOnUse" xlink:href="#id8" x1="385.79" y1="214.067" x2="374.085" y2="238.816">
  </linearGradient>
  <linearGradient id="id27" gradientUnits="userSpaceOnUse" xlink:href="#id0" x1="702.201" y1="546.834" x2="672.414" y2="537.154">
  </linearGradient>
  <linearGradient id="id28" gradientUnits="userSpaceOnUse" xlink:href="#id8" x1="569.286" y1="223.238" x2="582.958" y2="253.191">
  </linearGradient>
  <linearGradient id="id29" gradientUnits="userSpaceOnUse" xlink:href="#id12" x1="596.469" y1="542.021" x2="647.708" y2="572.39">
  </linearGradient>
  <radialGradient id="id30" gradientUnits="userSpaceOnUse" cx="389.013" cy="407.702" r="42.5918" fx="389.013" fy="407.702">
   <stop offset="0" style="stop-color:#FF6161"/>
   <stop offset="1" style="stop-color:#7E1602"/>
  </radialGradient>
  <radialGradient id="id31" gradientUnits="userSpaceOnUse" cx="403.634" cy="404.556" r="23.3918" fx="403.634" fy="404.556">
   <stop offset="0" style="stop-color:#8FC7FF"/>
   <stop offset="0.760784" style="stop-color:#6196CC"/>
   <stop offset="1" style="stop-color:#336699"/>
  </radialGradient>
  <radialGradient id="id32" gradientUnits="userSpaceOnUse" xlink:href="#id31" cx="318.329" cy="435.072" r="23.3882" fx="318.329" fy="435.072">
  </radialGradient>
  <radialGradient id="id33" gradientUnits="userSpaceOnUse" cx="303.519" cy="439.555" r="40.9571" fx="303.519" fy="439.555">
   <stop offset="0" style="stop-color:white"/>
   <stop offset="0.6" style="stop-color:#E5E5E5"/>
   <stop offset="1" style="stop-color:#CCCCCC"/>
  </radialGradient>
  <radialGradient id="id34" gradientUnits="userSpaceOnUse" xlink:href="#id33" cx="389.079" cy="409.751" r="40.9559" fx="389.079" fy="409.751">
  </radialGradient>
  <radialGradient id="id35" gradientUnits="userSpaceOnUse" xlink:href="#id30" cx="303.457" cy="436.352" r="42.5977" fx="303.457" fy="436.352">
  </radialGradient>
 </defs>
 <g id="Livello_x0020_1">
  <metadata id="CorelCorpID_0Corel-Layer"/>
  <g id="_83573272">
   <path id="_83620256" class="fil0" d="M669.788 250.842c0,0 -59.5252,-35.9256 -103.656,-14.1791 -44.1296,21.7453 -32.2642,78.2705 -25.3169,104.913 6.94725,26.641 13.8508,47.4166 -6.32835,94.5024 -20.1791,47.087 -55.4209,119.513 -66.7784,169.467 -11.3575,49.9536 -34.1835,96.1796 -75.2044,141.37 -41.0209,45.189 -53.6351,44.9906 -73.9253,77.4107 -20.2902,32.4201 -43.8213,62.8111 -28.7799,73.552 15.0414,10.7398 68.1036,6.52678 93.8635,-0.7063 25.7587,-7.23426 44.6374,-32.3103 44.6374,-32.3103 0,0 16.7398,2.51339 83.7402,-59.5926 67.0004,-62.106 92.5831,-92.8052 98.6481,-105.464 6.06378,-12.6602 15.9449,-25.0547 33.6756,-46.6016 17.7319,-21.5469 38.6174,-52.7989 58.9063,-85.219 20.2902,-32.4201 15.6579,-63.1855 39.4548,-97.3926 23.7957,-34.2059 36.8965,-47.5052 60.0969,-82.8804 23.2004,-35.3752 19.7823,-60.8705 7.91694,-78.3816 -11.8654,-17.511 -40.3158,-17.0032 -40.3158,-17.0032 0,0 -17.511,-27.1488 -49.865,-38.6386 -32.354,-11.491 -50.7473,0.0885827 -50.7697,-2.84528z"/>
   <path id="_83616896" class="fil1" d="M567.311 720.244c50.3741,-61.2662 64.8556,-111.421 84.6379,-201.676 19.7858,-90.2587 24.6969,-105.373 45.6154,-140.353 20.9173,-34.9796 19.5969,-67.6371 0.457087,-82.2131 -19.1351,-14.5748 -95.3611,62.0882 -76.4587,119.581 18.9036,57.4937 -3.08032,139.854 -45.5351,222.743 -42.4536,82.8922 -70.167,100.742 -85.1788,127.866 -8.94095,16.1634 26.0835,15.3154 76.4623,-45.9485z"/>
   <path id="_83617632" class="fil2" d="M548.514 372.209c0,0 4.963,-7.92875 9.38505,-39.8859 4.42205,-31.9583 16.5744,-47.3894 33.4536,-58.8993 16.8791,-11.511 35.4225,-11.7449 51.7926,-5.23229 16.3689,6.5126 62.7142,16.2071 62.7142,16.2071 0,0 47.7874,10.7599 56.0268,33.1158 8.23938,22.3571 12.7299,47.0729 15.6957,59.9634 2.96693,12.8917 -2.88662,-73.6902 -2.88662,-73.6902 0,0 5.61024,6.5941 17.6646,11.7047 12.0555,5.10945 22.1008,5.39292 22.1008,5.39292 0,0 -7.86142,-19.8484 -23.3681,-30.8516 -15.5067,-11.0032 -147.571,-67.0406 -193.484,-43.2012 -45.913,23.8406 -56.6871,45.9815 -54.502,74.1237 2.18504,28.141 4.27441,43.728 5.40709,51.2528z"/>
   <path id="_83615752" class="fil3" d="M657.134 235.729c0,0 15.5929,-22.1268 48.0319,-56.2654 32.439,-34.1374 42.5292,-65.1827 43.2213,-77.2595 0.692127,-12.0768 15.1016,-10.6264 34.6512,2.84528 19.5496,13.4717 15.6449,11.5618 8.88662,18.4299 -6.75827,6.8693 -10.3311,-2.06811 -17.4508,7.92402 -7.11969,9.99213 -13.1575,38.4614 -34.3406,67.8402 -21.1831,29.3799 -27.0732,49.4764 -27.0732,49.4764 0,0 20.5264,-13.4055 52.1445,0.755906 31.6181,14.1602 21.4335,31.5721 56.9268,43.7563 35.4933,12.1843 50.3174,-9.5445 45.5398,-24.6957 -4.77638,-15.1524 -20.1059,-9.77599 -20.1059,-9.77599 0,0 20.5099,-15.3496 31.3831,8.90552 10.8744,24.2563 -10.2331,37.4681 -42.1359,38.1083 -31.9028,0.640158 -66.7985,-9.40276 -66.7985,-9.40276 0,0 22.8248,9.36024 39.9756,40.1859 17.1508,30.8256 -9.67087,61.6052 -2.11772,84.1371 7.55316,22.5319 34.5851,20.9575 38.2016,9.82796 3.61772,-11.1307 -5.18504,-17.8772 -5.18504,-17.8772 0,0 15.8398,10.976 10.3039,26.0126 -5.53583,15.0378 -33.3827,11.1709 -54.2953,-2.10236 -20.9114,-13.2732 -23.6788,-46.5508 -24.1358,-82.9595 -0.455906,-36.4075 -23.7414,-54.3331 -44.8406,-67.0193 -21.0992,-12.685 -25.9406,-9.72757 -25.9406,-9.72757 0,0 25.0382,18.4961 6.98977,52.1304 -18.0484,33.6343 -59.9481,23.2547 -78.2835,43.8461 -18.3354,20.5902 -7.25434,46.2071 -7.25434,46.2071 0,0 -34.3028,-35.7508 -19.5213,-63.3249 14.7803,-27.5752 46.6807,-28.2201 36.6107,-48.9733 -10.0701,-20.7532 -4.37481,-40.2733 -4.37481,-40.2733 0,0 -2.0374,-11.6658 -32.7048,-2.85709 -30.6673,8.80749 -52.493,32.1496 -52.1185,56.8796 0.375591,24.7288 -10.7693,70.9654 -33.2835,78.5422 -22.513,7.57678 -29.3634,-25.0807 -29.3634,-25.0807 0,0 11.2287,19.187 23.2666,15.9768 12.0378,-3.21024 15.8965,-34.9748 9.19371,-74.0658 -6.70158,-39.091 14.2146,-79.565 52.8331,-92.9103 38.6197,-13.3465 79.9217,-5.10709 83.1638,12.7831z"/>
   <path id="_83614416" class="fil4" d="M657.041 249.943c0,0 -23.2063,19.6524 -14.3197,38.0835 8.88544,18.4323 17.9114,28.4811 -4.16693,42.6756 -22.076,14.198 -33.2705,26.7473 -33.5658,39.6012 -0.296457,12.8539 12.7146,36.5091 12.7146,36.5091 0,0 -13.6441,-29.6847 0.245669,-46.5414 13.891,-16.8579 22.2236,-20.6256 46.2496,-34.8355 24.0236,-14.2075 21.4311,-22.1764 16.6701,-35.374 -4.76339,-13.2012 7.52717,-35.1071 -23.8276,-40.1185z"/>
   <path id="_83613248" class="fil5" d="M649.51 234.221c0,0 -4.59213,-15.7358 -38.3327,-14.3988 -33.7441,1.33347 -64.6619,16.8602 -76.9359,41.6906 -12.2681,24.828 -11.0764,41.0788 -8.01024,62.4721 3.06969,21.3957 1.3937,31.5331 1.3937,31.5331 0,0 7.52481,-22.161 11.5323,-46.4339 4.00748,-24.2764 13.839,-50.5418 44.4036,-61.0063 30.5646,-10.461 55.8733,-7.74095 65.9493,-13.8567z"/>
   <path id="_83612136" class="fil6" d="M713.74 251.534c0,0 18.3969,-10.8555 46.8756,-0.95315 28.4776,9.89765 27.0154,23.3433 35.9209,30.7736 8.90198,7.42796 22.7504,12.5764 22.7504,12.5764 0,0 -19.8473,-1.59567 -54.3662,-12.8126 -34.5166,-11.2193 -56.7,-25.5496 -51.1807,-29.5843z"/>
   <path id="_83610992" class="fil7" d="M724.266 281.824c0,0 34.8945,10.0476 46.9193,45.6851 12.026,35.6362 2.16024,56.0646 9.50906,77.2312 7.34528,21.1666 20.2512,30.2126 20.2512,30.2126 0,0 -18.4252,-19.9099 -16.0453,-40.1788 2.37992,-20.2677 8.61142,-59.3587 -4.35355,-77.1745 -12.9602,-17.8122 -38.8772,-36.5906 -56.2808,-35.7756z"/>
   <path id="_83609792" class="fil8" d="M781.334 115.179c1.24606,-2.82992 -3.01299,-13.6063 -15.6886,-17.4024 -12.6732,-3.79252 -15.2622,1.19173 -14.2347,8.97048 1.0252,7.78347 0.157087,21.4217 -18.248,46.1977 -18.398,24.7807 -32.4047,39.0048 -46.9559,57.9119 -14.55,18.9036 -18.4642,29.9374 -18.4642,29.9374 0,0 29.4473,-30.8977 60.5327,-63.8563 31.089,-32.961 34.363,-51.0012 32.9162,-62.4756 -1.44567,-11.4791 14.824,5.14134 20.1425,0.71693z"/>
   <path id="_83608408" class="fil9" d="M546.293 313.994c0,0 -0.61063,-30.9544 30.8032,-45.0272 31.4138,-14.074 62.7449,-12.9567 62.7449,-12.9567 0,0 3.20197,-1.87559 9.97206,-6.79725 6.77008,-4.92284 14.0433,-8.38229 27.0437,0.372048 12.9992,8.75552 17.8134,28.774 17.8134,28.774 0,0 16.5437,14.7709 9.2445,41.2111 -7.29922,26.4414 -23.5099,31.5355 -45.1866,33.5551 -21.6768,2.02087 -38.8548,21.0449 -38.8548,21.0449 0,0 32.5985,-25.6654 46.8815,-27.8244 14.2843,-2.16024 26.4851,-9.85158 31.9016,-27.515 5.41536,-17.6634 -8.06103,-38.8796 -8.06103,-38.8796 0,0 -1.23543,-23.0658 -14.0244,-29.4886 -12.7878,-6.42402 -27.5658,-5.72717 -35.2335,-3.03544 -7.66772,2.69173 -7.47048,3.08032 -7.47048,3.08032 0,0 -34.6217,1.04528 -62.2394,15.3839 -27.6189,14.3374 -26.0162,48.2055 -25.3347,48.1028z"/>
   <path id="_83607024" class="fil9" d="M779.059 123.18c0,0 -7.48938,0.158268 -14.3492,20.2689 -6.86103,20.1095 -12.202,34.5614 -25.7894,52.4847 -13.5874,17.9244 -22.3559,29.9681 -28.2898,43.2579 -5.93268,13.2898 -3.06733,19.3996 -2.37284,21.2433 0.694489,1.84488 13.4126,12.4512 49.9689,23.3622 36.5551,10.911 52.4705,18.6697 81.1524,16.9843 28.6819,-1.68662 38.7071,-14.6162 37.0642,-26.4815 -1.64291,-11.8665 -3.20197,-12.0484 -3.20197,-12.0484 0,0 9.6508,16.0914 1.16457,26.2795 -8.48623,10.1882 -32.9469,18.763 -56.706,15.2469 -23.7579,-3.51496 -52.904,-12.3425 -81.8729,-23.7 -28.9689,-11.3563 -37.9571,-16.5449 -39.6048,-29.3823 -1.64764,-12.8374 17.478,-31.878 37.2366,-56.8607 19.7587,-24.9839 23.2559,-39.7134 27.9307,-52.1138 4.67481,-12.4004 18.1571,-18.0579 17.6693,-18.541z"/>
   <path id="_83605944" class="fil9" d="M783.551 315.339c0,0 14.2973,12.7382 13.415,39.326 -0.882284,26.5878 -6.84449,49.8981 1.05827,66.3898 7.90158,16.4917 17.2559,18.5587 17.2559,18.5587 0,0 -19.102,-18.8291 -15.8717,-42.7111 3.2315,-23.8819 6.05552,-64.4067 -15.8575,-81.5635z"/>
   <path id="_83604832" class="fil9" d="M545.731 317.542c0,0 -0.227953,41.0032 -11.7307,58.9949 -11.5028,17.9917 -17.7284,23.4095 -27.3402,19.0961 -9.61182,-4.31457 -14.9764,-15.2858 -14.9764,-15.2858 0,0 11.55,12.0886 16.6665,13.7504 5.11536,1.66299 14.7732,0.336614 23.4898,-19.1551 8.71536,-19.4929 13.891,-57.4004 13.891,-57.4004z"/>
   <path id="_83603192" class="fil9" d="M847.176 419.158c0,0 3.10512,6.98859 0.465355,14.6516 -2.63977,7.66182 -8.85709,11.1721 -19.1043,10.0843 -10.2484,-1.0878 -31.1811,-7.89095 -31.1811,-7.89095 0,0 17.1154,13.037 36.2882,12.3921 19.1717,-0.646064 23.0197,-15.2421 13.5319,-29.237z"/>
   <path id="_83601728" class="fil10" d="M617.161 272.998c-8.53465,-3.96378 -37.4114,11.3811 -45.4264,33.2882 -8.01969,21.9095 -11.2287,34.5496 -10.2839,64.6985 0.944883,30.1477 -37.9642,81.554 -50.3481,151.293 -15.6024,87.8493 68.765,177.77 75.5327,-48.8091 2.29134,-76.8426 -27.587,-87.7477 -1.65118,-123.484 25.9394,-35.7366 47.6965,-65.9764 32.1768,-76.9867z"/>
   <path id="_83600672" class="fil2" d="M758.293 338.269c0,0 -17.9492,47.8819 -27.6107,99.6497 -9.66261,51.7689 -13.3323,88.7729 -13.3323,88.7729 0,0 7.52953,-48.88 23.4803,-75.9249 15.952,-27.0449 27.4488,-73.4422 17.4626,-112.498z"/>
   <path id="_83599560" class="fil11" d="M718.185 399.241c0,0 -9.71576,92.3339 -12.7394,120.002 -3.02244,27.6662 -5.45197,38.8134 -45.6402,89.0138 -40.1882,50.2016 -43.7244,57.4134 -43.7244,57.4134 0,0 40.0559,-68.1544 57.2209,-124.645 17.165,-56.4945 44.8831,-141.784 44.8831,-141.784z"/>
   <path id="_83598496" class="fil12" d="M609.123 282.775c-2.25,-1.32284 -18.1335,5.4189 -29.5288,25.8284 -11.3953,20.4071 -12.7618,41.0977 -10.1492,43.1374 2.61142,2.04095 32.6835,-34.624 39.678,-68.9658z"/>
   <path id="_83597464" class="fil13" d="M598.204 295.302c-1.70906,-1.14685 -25.3122,26.5996 -19.6382,31.1221 5.67402,4.52599 24.3295,-26.3209 19.6382,-31.1221z"/>
   <path id="_83596400" class="fil14" d="M345.058 814.759c-8.19686,6.87638 -39.9933,47.8288 -37.4185,56.4166 2.57599,8.58898 33.3721,1.90158 55.8107,-19.4303 22.4386,-21.3319 17.2866,-62.3646 -18.3921,-36.9862z"/>
   <path id="_83595608" class="fil15" d="M323.599 860.925c-0.553937,-1.96417 22.3217,-43.0512 36.3296,-37.6051 14.0079,5.44371 -27.1252,47.7402 -36.3296,37.6051z"/>
   <path id="_83594784" class="fil16" d="M659.769 256.075c-3.74764,1.46221 -13.8425,16.0382 -8.93741,25.6736 4.90512,9.62717 11.1945,0.362599 14.4366,-8.70355 3.24331,-9.06733 -0.839764,-16.6465 -5.49922,-16.9701z"/>
   <path id="_83593784" class="fil17" d="M734.946 252.823c1.59449,-2.16024 14.928,-2.8878 27.2386,3.19725 12.3106,6.08386 0.478347,15.9319 -27.2386,-3.19725z"/>
   <path id="_83592672" class="fil18" d="M545.759 462.724c-41.974,62.7296 -27.3555,85.7528 -23.9776,108.719 3.14292,21.3638 26.4213,11.1425 29.0327,-31.9949 2.6126,-43.1374 9.62835,-103.558 -5.05512,-76.7245z"/>
   <path id="_83591744" class="fil19" d="M733.247 324.907c8.26536,2.08937 13.2555,21.5977 -1.57795,52.5579 -14.8323,30.9614 -26.3469,49.878 -32.9551,53.6953 -6.60827,3.81496 21.6,-108.671 34.5331,-106.253z"/>
   <g>
    <g>
     <path id="_83590176" class="fil20 str0" d="M704.401 439.509c-20.5984,-5.61378 -49.7552,-5.77205 -66.3497,2.38701 -16.5957,8.1567 -18.4795,13.4835 -23.4862,21.424 -5.01024,7.93938 -5.01378,10.5496 -5.01378,10.5496 0,0 2.30197,-4.59213 12.8398,-0.112205 10.5366,4.48465 26.2949,13.1398 42.0532,11.8772 15.7559,-1.2626 28.8166,-15.0213 38.9918,-20.6681 10.174,-5.64449 16.0087,-7.38426 22.924,-9.07205 6.91654,-1.68543 26.4874,-8.98701 26.4874,-8.98701 -18.2799,-2.47205 -27.8504,-1.78465 -48.4465,-7.39843z"/>
     <path id="_835901761" class="fil21" d="M704.401 439.509c-20.5984,-5.61378 -49.7552,-5.77205 -66.3497,2.38701 -16.5957,8.1567 -18.4795,13.4835 -23.4862,21.424 -5.01024,7.93938 -5.01378,10.5496 -5.01378,10.5496 0,0 2.30197,-4.59213 12.8398,-0.112205 10.5366,4.48465 26.2949,13.1398 42.0532,11.8772 15.7559,-1.2626 28.8166,-15.0213 38.9918,-20.6681 10.174,-5.64449 16.0087,-7.38426 22.924,-9.07205 6.91654,-1.68543 26.4874,-8.98701 26.4874,-8.98701 -18.2799,-2.47205 -27.8504,-1.78465 -48.4465,-7.39843z"/>
    </g>
    <g>
     <path id="_83589480" class="fil22" d="M568.212 391.631l-0.994489 0.583465 0 0 -0.50315 -0.827953 -0.493701 -0.81378 -0.484252 -0.799607 -0.472441 -0.790158 -0.461811 -0.772442 -0.45 -0.757087 -0.43937 -0.741733 -0.426378 -0.725197 -0.413386 -0.705119 -0.402756 -0.68504 -0.388583 -0.668504 -0.373229 -0.644882 -0.359055 -0.622441 -0.344882 -0.598819 -0.328347 -0.57756 -0.314173 -0.550394 -0.298819 -0.52441 -0.284646 -0.497244 -0.264567 -0.470079 -0.249213 -0.440552 -0.230315 -0.412205 -0.212599 -0.380315 -0.194882 -0.348425 -0.175984 -0.316536 -0.157087 -0.282284 -0.137008 -0.248032 -0.116929 -0.212599 -0.0980316 -0.175984 -0.0755906 -0.140551 -0.0531496 -0.0980316 -0.034252 -0.0614174 -0.011811 -0.0212599 1.0063 -0.562205 0.00944883 0.0188977 0.034252 0.0614174 0.0555119 0.100394 0.0755906 0.138189 0.0956694 0.175984 0.116929 0.210236 0.137008 0.248032 0.157087 0.282284 0.175984 0.316536 0.194882 0.348425 0.212599 0.380315 0.230315 0.409843 0.249213 0.440552 0.264567 0.470079 0.279921 0.497244 0.298819 0.52441 0.314173 0.550394 0.330709 0.575197 0.344882 0.598819 0.359055 0.622441 0.373229 0.644882 0.388583 0.66378 0.398032 0.687402 0.413386 0.705119 0.426378 0.722835 0.43937 0.741733 0.45 0.757087 0.461811 0.772442 0.472441 0.785434 0.48189 0.801969 0.493701 0.81378 0.50315 0.823229 0 0zm13.6276 31.0902l-1.06299 0.318898 0 0 -0.00708662 -1.21772 -0.0531496 -1.19173 -0.101575 -1.16811 -0.142913 -1.14685 -0.184252 -1.12441 -0.226772 -1.10315 -0.259843 -1.08307 -0.296457 -1.06299 -0.330709 -1.0441 -0.360237 -1.02638 -0.388583 -1.01102 -0.416929 -0.992127 -0.444095 -0.976772 -0.462992 -0.96378 -0.486615 -0.949607 -0.501969 -0.935434 -0.520867 -0.922442 -0.53504 -0.912993 -0.548032 -0.900001 -0.557481 -0.890552 -0.564567 -0.883465 -0.571654 -0.871654 -0.57756 -0.864568 -0.578741 -0.859843 -0.57756 -0.853938 -0.575197 -0.846851 -0.571654 -0.843308 -0.564567 -0.840946 -0.5563 -0.83504 -0.544489 -0.836221 -0.533859 -0.832678 -0.517323 -0.833859 0.994489 -0.583465 0.514961 0.829135 0.529134 0.830316 0.544489 0.829135 0.553937 0.837402 0.564567 0.836221 0.571654 0.843308 0.575197 0.846851 0.57756 0.853938 0.578741 0.859843 0.57756 0.869292 0.574016 0.876379 0.569292 0.885827 0.559843 0.895276 0.550394 0.907087 0.539764 0.917717 0.523229 0.929528 0.509056 0.944883 0.488977 0.956694 0.470079 0.973229 0.446457 0.988583 0.421654 1.0063 0.39567 1.02047 0.364961 1.04055 0.333071 1.06063 0.301181 1.07953 0.266929 1.09724 0.226772 1.12205 0.188977 1.14331 0.145276 1.16575 0.101575 1.18937 0.0555119 1.21536 0.00708662 1.23898 0 0zm-5.53111 24.2646l-1.00158 0.0448819 0 0 0.275197 -0.647245 0.274016 -0.633071 0.266929 -0.616536 0.263386 -0.605906 0.258662 -0.595276 0.250394 -0.588189 0.248032 -0.583465 0.242126 -0.581103 0.233858 -0.578741 0.227953 -0.581103 0.223229 -0.587008 0.21378 -0.590552 0.211417 -0.601182 0.199606 -0.61063 0.193701 -0.624804 0.186614 -0.64252 0.178347 -0.659056 0.168898 -0.679134 0.161811 -0.703938 0.153543 -0.728741 0.142913 -0.755906 0.134646 -0.786615 0.124016 -0.819686 0.115748 -0.853938 0.102756 -0.887009 0.0933072 -0.929528 0.0838583 -0.969686 0.0708662 -1.01457 0.0602363 -1.05827 0.0472441 -1.10787 0.0389764 -1.15866 0.0236221 -1.21063 1.06299 -0.318898 -0.0259843 1.21772 -0.034252 1.16339 -0.0496063 1.11732 -0.0602363 1.06772 -0.0732284 1.02165 -0.0838583 0.979135 -0.0956694 0.938977 -0.105118 0.901182 -0.115748 0.863387 -0.126378 0.829135 -0.137008 0.798426 -0.145276 0.767717 -0.153543 0.742914 -0.164173 0.715749 -0.175984 0.69567 -0.180709 0.673229 -0.188977 0.654331 -0.198425 0.638977 -0.206693 0.624804 -0.211417 0.612993 -0.220866 0.604725 -0.225591 0.596457 -0.232677 0.590552 -0.238583 0.588189 -0.244488 0.585827 -0.248032 0.588189 -0.255118 0.590552 -0.258662 0.6 -0.263386 0.605906 -0.266929 0.616536 -0.269292 0.628347 -0.275197 0.644882 0 0zm-5.32559 8.42717l0.973229 0.00944883 -0.859843 -0.167717 -0.00826772 0.00944883 0.00590552 -0.00708662 0.00708662 -0.00826772 0.0188977 -0.0236221 0.0295276 -0.0366142 0.0401575 -0.0484252 0.0448819 -0.0625985 0.0578741 -0.0779528 0.0649607 -0.0874016 0.0732284 -0.109843 0.0814961 -0.119291 0.0921261 -0.140551 0.101575 -0.158268 0.10748 -0.174803 0.11811 -0.196063 0.125197 -0.214961 0.134646 -0.23504 0.144095 -0.256299 0.155906 -0.281103 0.161811 -0.301181 0.170079 -0.327166 0.180709 -0.350788 0.190158 -0.376772 0.198425 -0.401575 0.205512 -0.427559 0.217323 -0.455906 0.225591 -0.484252 0.23504 -0.512599 0.242126 -0.543308 0.255118 -0.572835 0.263386 -0.603544 0.270473 -0.637796 1.00158 -0.0448819 -0.275197 0.640158 -0.263386 0.61063 -0.255118 0.579922 -0.246851 0.54567 -0.237402 0.519685 -0.230315 0.491339 -0.217323 0.462992 -0.212599 0.434646 -0.20315 0.408662 -0.190158 0.383859 -0.185433 0.357874 -0.174803 0.334252 -0.168898 0.31063 -0.155906 0.288189 -0.148819 0.26811 -0.141732 0.244488 -0.134646 0.226772 -0.122835 0.205512 -0.119291 0.188977 -0.106299 0.167717 -0.0968505 0.152362 -0.0933072 0.138189 -0.0826772 0.116929 -0.0744095 0.108662 -0.0673229 0.0897639 -0.0614174 0.0791339 -0.0496063 0.0649607 -0.0437008 0.0555119 -0.0377953 0.0425197 -0.0330709 0.0389764 -0.0200788 0.0188977 -0.0153543 0.0188977 -0.859843 -0.167717zm0.113386 -0.158268l0.746457 0.325985 -0.0200788 0.0200788 -0.0200788 0.0188977 -0.0212599 0.0188977 -0.022441 0.0177165 -0.022441 0.0165354 -0.022441 0.0165354 -0.0236221 0.0153543 -0.0236221 0.0153543 -0.0248032 0.0141732 -0.0236221 0.0129921 -0.0248032 0.011811 -0.0259843 0.011811 -0.0248032 0.0106299 -0.0259843 0.0106299 -0.0248032 0.00826772 -0.0259843 0.00826772 -0.0248032 0.00708662 -0.0259843 0.00708662 -0.0248032 0.00472441 -0.0259843 0.00472441 -0.0248032 0.00354331 -0.0248032 0.00354331 -0.0248032 0.0011811 -0.0236221 0 -0.0236221 0 -0.0236221 -0.0011811 -0.022441 -0.00236221 -0.022441 -0.00354331 -0.0212599 -0.00472441 -0.0212599 -0.00590552 -0.0200788 -0.00590552 -0.0200788 -0.00826772 -0.0188977 -0.00944883 -0.0177165 -0.00944883 -0.0153543 -0.0106299 -0.0153543 -0.011811 -0.0141732 -0.011811 -0.011811 -0.0129921 -0.011811 -0.0141732 -0.0106299 -0.0141732 -0.00826772 -0.0153543 -0.00826772 -0.0153543 -0.00590552 -0.0165354 -0.00590552 -0.0165354 -0.00354331 -0.0165354 -0.00236221 -0.0188977 -0.00236221 -0.0177165 0 -0.0188977 0 -0.0188977 0.00236221 -0.0188977 0.00354331 -0.0200788 0.00472441 -0.0200788 0.00472441 -0.0200788 0.00708662 -0.0200788 0.00826772 -0.0200788 0.00944883 -0.0212599 0.00944883 -0.0200788 0.011811 -0.0212599 0.0129921 -0.0200788 0.0141732 -0.0212599 0.0153543 -0.0200788 0.0165354 -0.0212599 0.0177165 -0.0200788 0.0188977 -0.0200788zm-3.17835 -6.32008l0.838583 -0.741733 -0.00236221 0 0.459449 0.302362 0.420473 0.305906 0.381496 0.305906 0.348425 0.309449 0.311811 0.311811 0.281103 0.309449 0.249213 0.309449 0.219685 0.309449 0.190158 0.305906 0.167717 0.302362 0.137008 0.298819 0.119291 0.294095 0.0944883 0.288189 0.0744095 0.279921 0.056693 0.275197 0.0401575 0.26811 0.0236221 0.256299 0.00944883 0.246851 -0.00236221 0.236221 -0.0106299 0.223229 -0.022441 0.214961 -0.0283465 0.197244 -0.0330709 0.183071 -0.0366142 0.172441 -0.0413386 0.152362 -0.0401575 0.13937 -0.0401575 0.120473 -0.0366142 0.101575 -0.0318898 0.0767717 -0.0271654 0.0661418 -0.0212599 0.0448819 -0.0106299 0.0212599 -0.973229 -0.00944883 -0.0011811 0 0.00944883 -0.0188977 0.0153543 -0.0377953 0.0248032 -0.0673229 0.0295276 -0.0779528 0.0330709 -0.0968505 0.0330709 -0.108662 0.0318898 -0.131102 0.034252 -0.141732 0.0283465 -0.159449 0.0259843 -0.173622 0.0177165 -0.184252 0.0106299 -0.197244 0.00236221 -0.210236 -0.00944883 -0.218504 -0.0212599 -0.230315 -0.0354331 -0.237402 -0.0519685 -0.246851 -0.0673229 -0.256299 -0.0874016 -0.262205 -0.105118 -0.26811 -0.129921 -0.272835 -0.151181 -0.27874 -0.178347 -0.284646 -0.20315 -0.283465 -0.232677 -0.290551 -0.262205 -0.290551 -0.295276 -0.290551 -0.327166 -0.292914 -0.362599 -0.291733 -0.399213 -0.28937 -0.438189 -0.288189 -0.00236221 0zm-16.8437 -15.8977l1.03465 -0.498426 0 0 0.316536 0.820867 0.343701 0.791339 0.372048 0.760631 0.398032 0.733465 0.421654 0.703938 0.445276 0.677953 0.466536 0.65315 0.485433 0.625985 0.50315 0.602363 0.518504 0.581103 0.532678 0.557481 0.550394 0.53504 0.557481 0.516142 0.569292 0.496063 0.576378 0.477166 0.583465 0.459449 0.589371 0.442914 0.592914 0.427559 0.596457 0.411024 0.596457 0.396851 0.594095 0.383859 0.592914 0.372048 0.588189 0.357874 0.582284 0.349607 0.57756 0.340158 0.565748 0.330709 0.557481 0.322441 0.544489 0.315355 0.531496 0.31063 0.51378 0.303544 0.500788 0.301181 0.483071 0.296457 -0.838583 0.741733 -0.473622 -0.294095 -0.493701 -0.296457 -0.51378 -0.303544 -0.529134 -0.308268 -0.544489 -0.315355 -0.557481 -0.322441 -0.568111 -0.333071 -0.57756 -0.340158 -0.587008 -0.351969 -0.595276 -0.362599 -0.597638 -0.37441 -0.601182 -0.388583 -0.603544 -0.401575 -0.603544 -0.418111 -0.602363 -0.432284 -0.596457 -0.45 -0.595276 -0.466536 -0.588189 -0.484252 -0.578741 -0.505512 -0.569292 -0.525591 -0.555119 -0.546851 -0.546851 -0.569292 -0.530315 -0.590552 -0.512599 -0.616536 -0.494882 -0.64252 -0.475985 -0.664961 -0.454725 -0.694489 -0.431103 -0.720473 -0.407481 -0.750001 -0.381496 -0.777166 -0.35315 -0.810237 -0.323622 -0.839764 0 0zm2.4815 -31.8922l1.05354 -0.236221 0 0 -0.151181 0.951969 -0.165354 0.966142 -0.177165 0.977954 -0.187795 0.990946 -0.196063 1.00039 -0.201969 1.00866 -0.205512 1.01929 -0.209055 1.0252 -0.210236 1.0311 -0.209055 1.03465 -0.204331 1.03937 -0.200788 1.04291 -0.194882 1.04173 -0.185433 1.04173 -0.174803 1.04291 -0.164173 1.04055 -0.148819 1.03701 -0.133465 1.0311 -0.115748 1.02638 -0.0944883 1.01929 -0.0744095 1.00984 -0.0507874 1.00158 -0.0283465 0.990946 0.00236221 0.980316 0.0271654 0.966142 0.0602363 0.951969 0.090945 0.936615 0.125197 0.923623 0.16063 0.903544 0.198425 0.884646 0.238583 0.865749 0.279921 0.84567 -1.03465 0.498426 -0.287008 -0.86693 -0.243307 -0.889371 -0.20315 -0.908268 -0.165354 -0.924804 -0.129921 -0.940158 -0.0933072 -0.957875 -0.0602363 -0.970867 -0.0295276 -0.98504 0 -0.994489 0.0259843 -1.00748 0.0531496 -1.01339 0.0767717 -1.02638 0.0968505 -1.02874 0.11811 -1.03819 0.133465 -1.04055 0.151181 -1.0441 0.164173 -1.04764 0.174803 -1.04764 0.187795 -1.04882 0.194882 -1.04882 0.200788 -1.04528 0.206693 -1.04173 0.209055 -1.03937 0.210236 -1.0311 0.209055 -1.0252 0.205512 -1.01457 0.201969 -1.00866 0.193701 -0.998032 0.187795 -0.983859 0.177165 -0.973229 0.162992 -0.959056 0.151181 -0.94252 0 0zm0.0637796 -17.4248l1.04646 -0.453544 0 0 0.127559 0.511418 0.115748 0.49252 0.111024 0.477166 0.103937 0.462992 0.0933072 0.45 0.0897639 0.43937 0.0767717 0.433465 0.0720473 0.426378 0.0637796 0.422835 0.0555119 0.422835 0.0472441 0.420473 0.0401575 0.426378 0.0283465 0.427559 0.0236221 0.437008 0.0129921 0.444095 0.00590552 0.457087 -0.00354331 0.470079 -0.0129921 0.484252 -0.0200788 0.499607 -0.0295276 0.519685 -0.0389764 0.540945 -0.0472441 0.56693 -0.056693 0.590552 -0.0649607 0.618898 -0.0732284 0.646064 -0.0850394 0.681497 -0.0921261 0.713386 -0.100394 0.750001 -0.111024 0.790158 -0.120473 0.830316 -0.129921 0.871654 -0.138189 0.916536 -1.05354 0.236221 0.138189 -0.916536 0.129921 -0.871654 0.11811 -0.827953 0.111024 -0.785434 0.100394 -0.747638 0.0921261 -0.711024 0.0826772 -0.67441 0.0732284 -0.643701 0.0649607 -0.611812 0.0543308 -0.583465 0.0472441 -0.557481 0.0366142 -0.533859 0.0295276 -0.510237 0.022441 -0.49252 0.0106299 -0.474804 0.00354331 -0.455906 -0.00590552 -0.445276 -0.0129921 -0.434646 -0.0212599 -0.425197 -0.0307087 -0.418111 -0.0377953 -0.414567 -0.0448819 -0.413386 -0.0555119 -0.408662 -0.0614174 -0.415748 -0.0696851 -0.419292 -0.0791339 -0.424016 -0.0850394 -0.434646 -0.0956694 -0.442914 -0.0992127 -0.458268 -0.111024 -0.472441 -0.11811 -0.490158 -0.122835 -0.509056 0 0zm5.12008 -18.998l-1.06063 0.304725 1.03228 -0.178347 -0.0153543 0.0366142 -0.0425197 0.108662 -0.0732284 0.175984 -0.0980316 0.244488 -0.120473 0.304725 -0.137008 0.360237 -0.16063 0.418111 -0.175984 0.464174 -0.188977 0.510237 -0.199606 0.5563 -0.209055 0.592914 -0.218504 0.627166 -0.220866 0.659056 -0.22441 0.686221 -0.226772 0.711024 -0.222047 0.728741 -0.218504 0.746457 -0.214961 0.758268 -0.204331 0.766536 -0.191339 0.770079 -0.18189 0.770079 -0.165354 0.768898 -0.147638 0.760631 -0.12874 0.750001 -0.106299 0.739371 -0.0814961 0.715749 -0.0543308 0.694489 -0.0283465 0.668504 0.00236221 0.636615 0.034252 0.602363 0.0708662 0.564567 0.103937 0.520867 -1.04646 0.453544 -0.113386 -0.563386 -0.0732284 -0.6 -0.0389764 -0.635434 -0.00236221 -0.664961 0.0283465 -0.692127 0.0590552 -0.718111 0.0838583 -0.737008 0.108662 -0.751182 0.131102 -0.766536 0.15 -0.777166 0.167717 -0.780709 0.18189 -0.784253 0.198425 -0.78189 0.206693 -0.775985 0.214961 -0.767717 0.220866 -0.753544 0.226772 -0.740552 0.226772 -0.715749 0.226772 -0.693308 0.225591 -0.666142 0.218504 -0.634252 0.211417 -0.6 0.204331 -0.558662 0.188977 -0.517323 0.175984 -0.47126 0.16063 -0.418111 0.144095 -0.367323 0.120473 -0.307087 0.0980316 -0.246851 0.0732284 -0.183071 0.0472441 -0.111024 0.0153543 -0.0389764 1.03228 -0.178347zm-0.0283465 0.126378l-1.00394 0.0519685 0.00944883 -0.0212599 0.0106299 -0.022441 0.011811 -0.0212599 0.0129921 -0.0200788 0.0141732 -0.0212599 0.0153543 -0.0200788 0.0153543 -0.0200788 0.0177165 -0.0200788 0.0177165 -0.0188977 0.0188977 -0.0188977 0.0188977 -0.0188977 0.0200788 -0.0177165 0.0212599 -0.0165354 0.0212599 -0.0165354 0.022441 -0.0165354 0.022441 -0.0153543 0.0236221 -0.0153543 0.0236221 -0.0141732 0.0236221 -0.0141732 0.0248032 -0.011811 0.0248032 -0.0129921 0.0259843 -0.0106299 0.0248032 -0.0106299 0.0259843 -0.00944883 0.0259843 -0.00944883 0.0259843 -0.00708662 0.0259843 -0.00708662 0.0271654 -0.00590552 0.0259843 -0.00590552 0.0259843 -0.00354331 0.0259843 -0.00236221 0.0259843 -0.00236221 0.0259843 -0.0011811 0.0248032 0.0011811 0.0236221 0.0011811 0.022441 0.00236221 0.022441 0.00354331 0.0212599 0.00472441 0.0212599 0.00472441 0.0188977 0.00708662 0.0188977 0.00708662 0.0177165 0.00826772 0.0165354 0.00944883 0.0165354 0.00944883 0.0141732 0.0106299 0.0141732 0.011811 0.0129921 0.0129921 0.011811 0.0129921 0.0106299 0.0129921 0.00944883 0.0153543 0.00826772 0.0153543 0.00708662 0.0153543 0.00590552 0.0165354 0.00472441 0.0165354 0.00354331 0.0177165 0.00236221 0.0188977 0.0011811 0.0188977 0 0.0188977 -0.00236221 0.0188977 -0.00236221 0.0212599 -0.00472441 0.0200788 -0.00472441 0.0212599 -0.00708662 0.0212599 -0.00826772 0.0212599zm0.262205 10.8933l-1.0063 0.562205 -0.0212599 -0.0590552 -0.0507874 -0.253937 -0.0472441 -0.285827 -0.0401575 -0.316536 -0.0354331 -0.34252 -0.0330709 -0.367323 -0.0259843 -0.392126 -0.0271654 -0.411024 -0.0188977 -0.42874 -0.0165354 -0.442914 -0.0141732 -0.454725 -0.011811 -0.464174 -0.00708662 -0.472441 -0.00944883 -0.474804 -0.00354331 -0.477166 -0.0011811 -0.474804 0 -0.470079 0.0011811 -0.464174 0.00236221 -0.454725 0.00472441 -0.440552 0.00472441 -0.425197 0.00590552 -0.407481 0.00590552 -0.387402 0.00708662 -0.362599 0.00590552 -0.336614 0.00826772 -0.308268 0.00708662 -0.274016 0.00590552 -0.242126 0.00590552 -0.200788 0.00354331 -0.162992 0.00354331 -0.120473 0.00236221 -0.0767717 0.0011811 -0.0248032 1.06063 -0.304725 -0.0011811 0.0248032 -0.00236221 0.0720473 -0.00354331 0.11811 -0.00354331 0.162992 -0.00590552 0.20315 -0.00590552 0.239764 -0.00708662 0.274016 -0.00590552 0.305906 -0.00590552 0.336614 -0.00708662 0.362599 -0.00590552 0.382677 -0.00590552 0.407481 -0.00472441 0.425197 -0.00472441 0.438189 -0.00236221 0.452363 -0.0011811 0.459449 0 0.470079 0.00354331 0.472441 0.00354331 0.474804 0.00472441 0.472441 0.00944883 0.467717 0.011811 0.461811 0.0141732 0.452363 0.0165354 0.438189 0.0212599 0.424016 0.022441 0.403937 0.0283465 0.382677 0.0307087 0.360237 0.0354331 0.333071 0.0377953 0.3 0.0425197 0.269292 0.046063 0.230315 -0.0212599 -0.0590552zm-1.02756 0.50315l1.04882 -0.444095 0.00354331 0.0188977 0.00236221 0.0188977 0 0.0200788 0 0.0188977 -0.00236221 0.0200788 -0.00236221 0.0200788 -0.00472441 0.0200788 -0.00590552 0.0200788 -0.00708662 0.0212599 -0.00826772 0.0200788 -0.00826772 0.0200788 -0.0106299 0.0212599 -0.011811 0.0200788 -0.011811 0.0200788 -0.0141732 0.0200788 -0.0141732 0.0200788 -0.0153543 0.0200788 -0.0165354 0.0188977 -0.0177165 0.0188977 -0.0177165 0.0188977 -0.0188977 0.0188977 -0.0200788 0.0177165 -0.0212599 0.0177165 -0.0212599 0.0165354 -0.022441 0.0165354 -0.022441 0.0165354 -0.0236221 0.0153543 -0.0248032 0.0141732 -0.0248032 0.0141732 -0.0259843 0.0129921 -0.0259843 0.0129921 -0.0271654 0.011811 -0.0271654 0.0106299 -0.0271654 0.0106299 -0.0259843 0.00826772 -0.0271654 0.00708662 -0.0259843 0.00708662 -0.0259843 0.00590552 -0.0259843 0.00472441 -0.0248032 0.00354331 -0.0248032 0.00236221 -0.0248032 0.0011811 -0.0236221 0.0011811 -0.0236221 0 -0.0236221 -0.00236221 -0.022441 -0.00236221 -0.0212599 -0.00236221 -0.0212599 -0.00472441 -0.0200788 -0.00472441 -0.0188977 -0.00590552 -0.0188977 -0.00708662 -0.0177165 -0.00826772 -0.0177165 -0.00826772 -0.0153543 -0.0106299 -0.0153543 -0.0106299 -0.0141732 -0.0106299 -0.0129921 -0.0129921 -0.011811 -0.0129921 -0.011811 -0.0141732 -0.00944883 -0.0153543 -0.00826772 -0.0153543 -0.00826772 -0.0165354 -0.00590552 -0.0177165 -0.00472441 -0.0177165z"/>
     <path id="_835894801" class="fil21" d="M558.471 376.023c0,0 3.82796,7.03819 9.2445,15.9 5.4189,8.86182 13.7823,17.7213 13.5933,30.9579 -0.19252,13.2378 -2.5441,17.1414 -5.5004,24.1276 -2.95984,6.98741 -4.33819,8.40946 -4.33819,8.40946 0,0 1.86142,-3.7252 -3.13229,-6.85394 -4.9937,-3.13229 -13.4953,-6.74764 -16.7457,-15.776 -3.24922,-9.02599 0.960237,-21.7358 2.49095,-31.761 1.52953,-10.0287 1.43504,-11.9799 0.0602363,-17.5335 -1.37362,-5.55355 4.06654,-18.6189 4.06654,-18.6189 0,0 -0.285827,8.75788 0.261024,11.1484z"/>
    </g>
    <path class="fil23" d="M710.894 453.226c-3.4441,0.106299 -27.6532,-10.9465 -56.0386,-11.5547 -28.3855,-0.609449 -42.1677,29.0587 -42.1677,29.0587 13.252,-0.948426 22.5355,12.3071 44.6622,11.8736 22.1268,-0.432284 35.7012,-26.5465 53.5441,-29.3776z"/>
    <path class="fil23" d="M557.193 390.513c0.800788,1.88032 12.6709,8.65985 20.0528,23.3516 7.3819,14.6917 -4.89331,38.1815 -4.89331,38.1815 -2.79331,-7.5319 -12.1181,-5.20985 -17.3917,-17.1567 -5.27481,-11.9469 5.17205,-33.3874 2.23229,-44.3764z"/>
    <path class="fil24" d="M685.721 445.995c-8.92796,-2.18858 -19.5697,-4.08307 -30.8658,-4.32402 -6.27638,-0.134646 -11.8299,1.21181 -16.6854,3.38977 -4.86615,12.2043 0.252756,26.263 12.0933,32.1815 12.4973,6.24449 27.7536,1.06536 34.0654,-11.5654 3.18898,-6.3815 3.48898,-13.448 1.39252,-19.6819z"/>
    <path class="fil24" d="M567.28 399.889c3.37796,3.53032 7.02756,8.12835 9.96497,13.976 1.6311,3.24803 2.30079,6.92245 2.35512,10.6819 -5.24882,9.23741 -13.963,14.2028 -20.0398,11.1662 -6.41339,-3.20433 -7.46694,-14.1071 -2.35158,-24.3425 2.58425,-5.17205 6.2504,-9.1878 10.0713,-11.4815z"/>
    <path class="fil21" d="M671.423 443.138c-5.25945,-0.796064 -10.8319,-1.3441 -16.5673,-1.46693l-0.961418 -0.0106299c-2.41654,1.44567 -4.47402,3.58229 -5.83111,6.29646 -3.75945,7.52481 -0.775985,16.6217 6.65434,20.3351 7.43859,3.71693 16.5047,0.64252 20.2654,-6.88229 3.17953,-6.3626 1.53543,-13.8673 -3.55985,-18.2717z"/>
    <path class="fil21" d="M572.348 405.897c1.72914,2.34921 3.40512,4.99843 4.89685,7.96772l0.244488 0.50315c-0.164173,2.06811 -0.783071,4.32284 -1.88268,6.52323 -3.04725,6.09804 -8.60434,9.48426 -12.4181,7.57914 -3.81614,-1.90748 -4.44449,-8.38583 -1.39725,-14.4827 2.57717,-5.1567 6.95906,-8.38347 10.5567,-8.09056z"/>
    <ellipse class="fil23" transform="matrix(-1.71179 -0.855456 -0.855456 1.71179 675.236 455.268)" rx="4.09252" ry="4.16457"/>
    <ellipse class="fil23" transform="matrix(-0.748012 -0.427453 -0.877354 1.492 563.198 412.491)" rx="4.09252" ry="4.16457"/>
    <ellipse class="fil23" transform="matrix(-0.443726 -0.221749 -0.221749 0.443726 646.882 455.172)" rx="4.09252" ry="4.16457"/>
    <ellipse class="fil23" transform="matrix(-0.635004 -0.317339 -0.317339 0.635004 655.393 453.977)" rx="4.09252" ry="4.16457"/>
    <path class="fil21" d="M640.792 413.619c0,0 27.3414,-17.948 50.5418,-14.9752 23.2004,2.97284 41.5725,17.902 41.5725,17.902 0,0 -21.1299,-15.1583 -41.5748,-14.4543 -20.4437,0.703938 -42.0414,15.2008 -49.1634,20.2618 -7.12323,5.06221 -9.87993,5.98111 -9.87993,5.98111 0,0 8.27481,-14.2571 8.50394,-14.7154z"/>
    <path class="fil21" d="M599.281 393.333c0,0 0.768898,-17.9977 -7.35827,-25.9559 -8.12717,-7.95827 -20.8311,-7.86142 -20.8311,-7.86142 0,0 12.4122,2.08583 17.7201,10.7102 5.3067,8.62442 4.92284,23.7272 4.67363,28.6276 -0.249213,4.9004 -1.84606,10.8709 -1.84606,10.8709 0,0 7.50473,-16.1173 7.64174,-16.3914z"/>
   </g>
   <g>
    <path class="fil25" d="M565.433 484.05l0 0 0.628347 0.324803 0.611812 0.334252 0.591733 0.347244 0.571654 0.359055 0.543308 0.369685 0.53504 0.387402 0.517323 0.400394 0.504331 0.422835 0.478347 0.432284 0.453544 0.442914 0.453544 0.479528 0.418111 0.477166 0.400394 0.504331 0.368504 0.504331 0.355512 0.529134 0.328347 0.53504 0.302362 0.540945 0.282284 0.555119 0.261024 0.557481 0.230315 0.558662 0.207874 0.564567 0.188977 0.569292 0.173622 0.571654 0.151181 0.570473 0.134646 0.575197 0.11811 0.590552 0.109843 0.590552 0.0897639 0.6 0.0850394 0.61063 0.0732284 0.614174 0.0602363 0.630709 0.0519685 0.635434 -3.31181 -1.44095 -0.0472441 -0.576378 -0.0555119 -0.552756 -0.0590552 -0.540945 -0.068504 -0.518504 -0.0826772 -0.500788 -0.0838583 -0.484252 -0.0992127 -0.46063 -0.106299 -0.447638 -0.113386 -0.431103 -0.116929 -0.403937 -0.129921 -0.382677 -0.13937 -0.36378 -0.145276 -0.350788 -0.145276 -0.328347 -0.157087 -0.309449 -0.167717 -0.302362 -0.177165 -0.28937 -0.185433 -0.276378 -0.210236 -0.282284 -0.21378 -0.263386 -0.233858 -0.274016 -0.240945 -0.255118 -0.281103 -0.272835 -0.296457 -0.269292 -0.315355 -0.264567 -0.347244 -0.270473 -0.37441 -0.269292 -0.413386 -0.275197 -0.432284 -0.271654 -0.461811 -0.271654 -0.491339 -0.272835 -0.526772 -0.270473 0 0 -0.0496063 -3.44173zm-19.4126 3.90473l0 0 0.317717 -0.553937 0.350788 -0.533859 0.37441 -0.497244 0.409843 -0.470079 0.432284 -0.445276 0.454725 -0.420473 0.483071 -0.388583 0.500788 -0.362599 0.522048 -0.338977 0.540945 -0.312992 0.565748 -0.281103 0.582284 -0.256299 0.597638 -0.230315 0.614174 -0.205512 0.633071 -0.172441 0.640158 -0.142913 0.657875 -0.120473 0.667323 -0.0933072 0.679134 -0.0578741 0.690945 -0.0330709 0.692127 -0.00236221 0.709843 0.0283465 0.713386 0.0555119 0.718111 0.0850394 0.726379 0.11811 0.72756 0.146457 0.731103 0.183071 0.737008 0.209055 0.734646 0.246851 0.737008 0.283465 0.737008 0.309449 0.733465 0.349607 0.0496063 3.44173 -0.575197 -0.271654 -0.583465 -0.252756 -0.590552 -0.219685 -0.597638 -0.197244 -0.6 -0.178347 -0.605906 -0.147638 -0.609449 -0.125197 -0.608268 -0.0968505 -0.611812 -0.0755906 -0.607087 -0.0484252 -0.601182 -0.0188977 -0.604725 0.00236221 -0.594095 0.0283465 -0.589371 0.0578741 -0.579922 0.0744095 -0.570473 0.0992127 -0.562205 0.131102 -0.54567 0.153543 -0.536221 0.172441 -0.522048 0.197244 -0.504331 0.223229 -0.487796 0.248032 -0.474804 0.265748 -0.453544 0.291733 -0.434646 0.315355 -0.407481 0.336614 -0.388583 0.354331 -0.366142 0.376772 -0.334252 0.399213 -0.320079 0.416929 -0.287008 0.427559 -0.263386 0.454725 0 0 -3.04488 -2.9315zm11.6823 45.7666l-2.38229 -1.74567 -0.680315 -1.52244 -0.683859 -1.52717 -0.67441 -1.52835 -0.670867 -1.52126 -0.66378 -1.52717 -0.651969 -1.52244 -0.64252 -1.51063 -0.627166 -1.51299 -0.603544 -1.50709 -0.592914 -1.50118 -0.565748 -1.49173 -0.539764 -1.47874 -0.512599 -1.4752 -0.487796 -1.45748 -0.451181 -1.45394 -0.425197 -1.43976 -0.380315 -1.41851 -0.34252 -1.40788 -0.301181 -1.38898 -0.256299 -1.3748 -0.206693 -1.35591 -0.158268 -1.3311 -0.103937 -1.30866 -0.046063 -1.28504 0.0129921 -1.26024 0.0708662 -1.23307 0.140551 -1.19764 0.200788 -1.17638 0.277559 -1.13032 0.347244 -1.10079 0.420473 -1.05709 0.498426 -1.01693 3.04488 2.9315 -0.427559 0.884646 -0.361418 0.912993 -0.297638 0.940158 -0.23504 0.979135 -0.179528 0.994489 -0.116929 1.03701 -0.0661418 1.06299 -0.00826772 1.09252 0.0413386 1.12205 0.0921261 1.15039 0.137008 1.17992 0.187795 1.20473 0.227953 1.23071 0.272835 1.26142 0.314173 1.28268 0.354331 1.31221 0.382677 1.32638 0.425197 1.34764 0.454725 1.37717 0.488977 1.3878 0.516142 1.4126 0.542126 1.42559 0.562205 1.43976 0.591733 1.45276 0.605906 1.46575 0.62126 1.48465 0.640158 1.48701 0.651969 1.4941 0.661418 1.50709 0.67441 1.50945 0.672048 1.51299 0.680315 1.52244 -2.38229 -1.74567 1.91339 3.77953zm0.468898 -2.03386l0.0425197 0.0980316 0.0377953 0.0980316 0.0330709 0.0956694 0.0295276 0.0956694 0.0259843 0.0944883 0.0212599 0.0921261 0.0165354 0.090945 0.0141732 0.0885827 0.00826772 0.0874016 0.00590552 0.0862205 0.0011811 0.0826772 -0.00236221 0.0814961 -0.00590552 0.0791339 -0.0106299 0.0767717 -0.0129921 0.0732284 -0.0177165 0.0708662 -0.0212599 0.068504 -0.0248032 0.0649607 -0.0283465 0.0625985 -0.0318898 0.0590552 -0.0354331 0.0555119 -0.0389764 0.0519685 -0.0437008 0.0484252 -0.0448819 0.0448819 -0.0496063 0.0401575 -0.0531496 0.0366142 -0.0555119 0.0330709 -0.0602363 0.0283465 -0.0625985 0.0236221 -0.0649607 0.0188977 -0.0696851 0.0153543 -0.0720473 0.00944883 -0.0744095 0.00472441 -0.0755906 0 -0.0767717 -0.00472441 -0.0779528 -0.00944883 -0.0779528 -0.0153543 -0.0791339 -0.0188977 -0.080315 -0.022441 -0.080315 -0.0283465 -0.080315 -0.0318898 -0.080315 -0.0354331 -0.080315 -0.0401575 -0.0791339 -0.0437008 -0.080315 -0.0472441 -0.0791339 -0.0519685 -0.0791339 -0.0543308 -0.0779528 -0.0578741 -0.0767717 -0.0614174 -0.0755906 -0.0649607 -0.0744095 -0.068504 -0.0732284 -0.0708662 -0.0720473 -0.0732284 -0.0696851 -0.0767717 -0.068504 -0.0791339 -0.0673229 -0.0814961 -0.0637796 -0.0838583 -0.0625985 -0.0862205 -0.0590552 -0.0885827 -0.0578741 -0.090945 -0.0543308 -0.0921261 -0.0519685 -0.0944883 -0.0484252 -0.0968505 -0.046063 -0.0980316 2.85118 -0.288189zm41.2607 -15.6331l0 0 -0.56693 0.976772 -0.647245 0.925985 -0.713386 0.890552 -0.774804 0.853938 -0.842127 0.810237 -0.907087 0.773623 -0.964961 0.740552 -1.01221 0.705119 -1.0689 0.677953 -1.12087 0.651969 -1.17165 0.625985 -1.22126 0.591733 -1.25906 0.572835 -1.3063 0.544489 -1.3441 0.530315 -1.38307 0.501969 -1.42559 0.484252 -1.44567 0.470079 -1.48701 0.447638 -1.50827 0.438189 -1.53543 0.425197 -1.56496 0.403937 -1.58504 0.400394 -1.60512 0.380315 -1.62284 0.380315 -1.6311 0.366142 -1.65 0.362599 -1.66536 0.350788 -1.67008 0.350788 -1.67244 0.346063 -1.67717 0.343701 -1.67953 0.34252 -1.91339 -3.77953 1.67953 -0.34252 1.67717 -0.343701 1.67244 -0.346063 1.66299 -0.346063 1.64646 -0.357874 1.64055 -0.357874 1.6311 -0.366142 1.6063 -0.368504 1.58858 -0.387402 1.56614 -0.388583 1.53898 -0.4063 1.5189 -0.413386 1.49173 -0.426378 1.45158 -0.445276 1.42913 -0.458268 1.38071 -0.474804 1.34764 -0.497244 1.31102 -0.506693 1.26378 -0.53504 1.22362 -0.549213 1.16929 -0.57756 1.12205 -0.590552 1.07126 -0.616536 1.01693 -0.64252 0.962599 -0.669686 0.896457 -0.693308 0.831497 -0.721654 0.775985 -0.744095 0.711024 -0.766536 0.640158 -0.798426 0.56693 -0.829135 0.505512 -0.851575 0 0 3.04488 2.9315zm-8.81457 -19.4197l0 0 0.724016 0.382677 0.702756 0.402756 0.688583 0.437008 0.667323 0.466536 0.647245 0.48189 0.625985 0.518504 0.601182 0.533859 0.57756 0.569292 0.552756 0.583465 0.522048 0.6 0.497244 0.630709 0.457087 0.630709 0.435827 0.657875 0.399213 0.672048 0.367323 0.683859 0.328347 0.686221 0.291733 0.699213 0.249213 0.692127 0.217323 0.69567 0.175984 0.699213 0.133465 0.68504 0.0980316 0.689764 0.056693 0.675591 0.0212599 0.677953 -0.0188977 0.659056 -0.0602363 0.649607 -0.0933072 0.647245 -0.133465 0.624804 -0.172441 0.62126 -0.207874 0.603544 -0.248032 0.589371 -0.28937 0.572835 -3.04488 -2.9315 0.225591 -0.466536 0.196063 -0.468898 0.165354 -0.47126 0.129921 -0.467717 0.100394 -0.478347 0.0720473 -0.465355 0.0389764 -0.470079 0.0141732 -0.470079 -0.011811 -0.455906 -0.0401575 -0.458268 -0.0625985 -0.446457 -0.0885827 -0.448819 -0.109843 -0.432284 -0.127559 -0.42874 -0.157087 -0.425197 -0.17126 -0.408662 -0.193701 -0.409843 -0.211417 -0.398032 -0.236221 -0.393307 -0.256299 -0.388583 -0.287008 -0.396851 -0.301181 -0.375591 -0.328347 -0.382677 -0.349607 -0.373229 -0.37441 -0.356693 -0.402756 -0.36378 -0.425197 -0.346063 -0.451181 -0.349607 -0.480709 -0.327166 -0.501969 -0.318898 -0.53504 -0.312992 -0.558662 -0.290551 0 0 -0.0496063 -3.44173zm-14.9043 3.60118l-2.87126 -2.51339 0.549213 -0.316536 0.543308 -0.302362 0.538583 -0.290551 0.538583 -0.266929 0.529134 -0.258662 0.526772 -0.245669 0.529134 -0.223229 0.518504 -0.212599 0.525591 -0.191339 0.518504 -0.17126 0.52441 -0.16063 0.519685 -0.13937 0.523229 -0.125197 0.525591 -0.0992127 0.527953 -0.080315 0.533859 -0.0649607 0.537402 -0.0389764 0.536221 -0.0248032 0.543308 0 0.555119 0.0236221 0.561024 0.046063 0.558662 0.068504 0.564567 0.0885827 0.579922 0.114567 0.579922 0.138189 0.588189 0.16063 0.598819 0.188977 0.602363 0.205512 0.611812 0.236221 0.620079 0.261024 0.630709 0.282284 0.635434 0.31063 0.0496063 3.44173 -0.533859 -0.256299 -0.519685 -0.23504 -0.509056 -0.21378 -0.50315 -0.188977 -0.493701 -0.177165 -0.480709 -0.148819 -0.479528 -0.132284 -0.47126 -0.109843 -0.461811 -0.0933072 -0.465355 -0.0744095 -0.461811 -0.0543308 -0.452363 -0.0366142 -0.448819 -0.0165354 -0.453544 0 -0.458268 0.0129921 -0.45 0.0389764 -0.453544 0.0507874 -0.457087 0.0732284 -0.457087 0.0921261 -0.461811 0.103937 -0.467717 0.122835 -0.462992 0.13937 -0.475985 0.161811 -0.473622 0.177165 -0.485433 0.188977 -0.484252 0.21378 -0.493701 0.222047 -0.50315 0.239764 -0.50315 0.264567 -0.514961 0.271654 -0.52441 0.290551 -0.532678 0.304725 -2.87126 -2.51339 3.31181 1.44095zm-0.440552 1.07244l-0.0602363 0.0318898 -0.0614174 0.0271654 -0.0649607 0.0212599 -0.0661418 0.0165354 -0.068504 0.0129921 -0.0708662 0.00708662 -0.0708662 0.00236221 -0.0732284 -0.00236221 -0.0755906 -0.00590552 -0.0755906 -0.0106299 -0.0767717 -0.0153543 -0.0767717 -0.0200788 -0.0791339 -0.0236221 -0.0791339 -0.0283465 -0.0791339 -0.0318898 -0.0791339 -0.0366142 -0.080315 -0.0401575 -0.0791339 -0.0437008 -0.080315 -0.0484252 -0.0791339 -0.0519685 -0.0791339 -0.0555119 -0.0779528 -0.0590552 -0.0767717 -0.0625985 -0.0767717 -0.0661418 -0.0755906 -0.068504 -0.0744095 -0.0732284 -0.0732284 -0.0767717 -0.0708662 -0.0791339 -0.0696851 -0.0814961 -0.068504 -0.0862205 -0.0661418 -0.0885827 -0.0637796 -0.090945 -0.0614174 -0.0933072 -0.056693 -0.0933072 -0.0543308 -0.0944883 -0.0496063 -0.0933072 -0.046063 -0.0944883 -0.0425197 -0.0944883 -0.0377953 -0.0933072 -0.0354331 -0.0933072 -0.0307087 -0.0933072 -0.0271654 -0.0921261 -0.0236221 -0.090945 -0.0200788 -0.0897639 -0.0165354 -0.0885827 -0.011811 -0.0874016 -0.00826772 -0.0862205 -0.00472441 -0.0850394 -0.0011811 -0.0814961 0.00354331 -0.0814961 0.00590552 -0.0779528 0.0106299 -0.0755906 0.0141732 -0.0744095 0.0188977 -0.0708662 0.0212599 -0.068504 0.0259843 -0.0649607 0.0295276 -0.0625985 0.034252 -0.0590552 0.0377953 -0.0555119 0.0413386 -0.0519685 0.0448819 -0.0484252 0.0484252 -0.0448819 0.0531496 -0.0401575 0.056693 -0.0366142 2.43071 3.58583z"/>
    <path id="1" class="fil26" d="M574.058 499.516c-0.484252,-6.54213 -2.30079,-10.5969 -8.59961,-13.7445 -6.94961,-3.47362 -14.974,-1.84606 -17.915,3.64961 -5.32796,9.94135 1.94055,26.1756 9.20316,42.4111 17.9197,-3.65079 35.8359,-7.29922 41.1638,-17.2429 2.94095,-5.48741 -0.314173,-12.7606 -7.26733,-16.2331 -6.2941,-3.14528 -10.774,-2.23583 -16.5851,1.15984zm-2.11654 -8.14489m-16.9441 -7.13859m-7.57205 24.0319m34.6288 17.3067m15.9354 -19.8532m-15.8185 -9.23505"/>
   </g>
   <path class="fil27" d="M507.946 500.592c0,0 -10.8284,84.0627 -11.1425,124.192 -0.316536,40.1292 11.876,59.6623 -4.10079,94.6619 -15.9744,34.9985 -27.202,40.8945 -23.1177,65.2619 4.08544,24.3673 38.7036,18.7146 38.7036,18.7146 0,0 -51.8315,53.6646 -80.3505,59.4579 -15.9508,20.3103 -46.128,41.9067 -81.8516,35.7638 -19.2484,-3.31181 17.5795,-81.9839 35.8866,-125.992 34.8024,-83.6823 113.345,-234.371 125.973,-272.06z"/>
  </g>
  <g>
   <g>
    <path class="fil0" d="M247.772 229.186c0,0 -69.0733,7.93229 -90.7194,52.1115 -21.6461,44.1803 22.2851,81.6757 44.0634,98.5194 21.7784,16.8449 39.9378,29.0729 52.7351,78.6768 12.7973,49.604 29.1544,128.471 50.687,174.954 21.5315,46.4835 31.7079,97.0229 26.8488,157.86 -4.86024,60.8374 -14.9669,68.3894 -11.2193,106.45 3.74882,38.0622 3.69095,76.4977 22.1599,75.8103 18.4689,-0.688583 57.9,-36.4477 73.8709,-57.913 15.9709,-21.4666 15.5929,-52.852 15.5929,-52.852 0,0 14.7874,-8.2382 29.8772,-98.341 15.0886,-90.1028 16.5815,-130.037 13.6476,-143.764 -2.93386,-13.7268 -2.68701,-29.576 -1.81654,-57.4678 0.870473,-27.8906 -1.69252,-65.3918 -5.44016,-103.453 -3.74882,-38.0611 -26.2134,-59.5855 -28.278,-101.204 -2.06339,-41.6185 0.180709,-60.1512 -3.06969,-102.331 -3.24922,-42.1796 -21.5339,-60.2729 -41.6268,-66.8847 -20.0917,-6.61182 -42.3036,11.1744 -42.3036,11.1744 0,0 -30.45,-10.7906 -63.0827,-0.116929 -32.6327,10.6736 -40.1174,31.0784 -41.9268,28.7693z"/>
    <path class="fil28" d="M453.467 663.384c2.44488,-79.278 -16.7374,-127.83 -56.2264,-211.364 -39.489,-83.5371 -44.837,-98.5028 -49.6524,-138.975 -4.81654,-40.4729 -25.8201,-65.5182 -49.8721,-65.3623 -24.0543,0.157087 -37.552,107.42 12.5421,141.383 50.0941,33.9591 83.0174,112.59 100.056,204.147 17.0398,91.5579 6.28465,121.612 10.9748,152.262 2.79803,18.2587 29.7366,-2.81103 32.178,-82.0902z"/>
    <path class="fil2" d="M225.929 399.363c0,0 -0.916536,-9.30828 -16.9417,-37.3075 -16.0264,-28.0004 -15.8362,-47.641 -9.50788,-67.0666 6.32835,-19.4256 20.8642,-30.9414 37.8024,-35.7886 16.9382,-4.84725 59.5477,-25.4906 59.5477,-25.4906 0,0 44.4048,-20.6823 64.5863,-8.01851 20.1827,12.6626 38.8406,29.4851 49.0654,37.8768 10.2248,8.39056 -47.3126,-56.5713 -47.3126,-56.5713 0,0 8.46969,1.79291 21.1347,-1.52835 12.6662,-3.32008 20.791,-9.23387 20.791,-9.23387 0,0 -18.3508,-10.9087 -37.35,-10.1433 -18.998,0.765355 -157.781,37.0996 -179.56,84.0261 -21.7784,46.9264 -16.7776,71.0363 2.14725,91.9784 18.9248,20.9421 30.104,32.0032 35.5973,37.2674z"/>
    <path class="fil3" d="M228.519 224.955c0,0 -1.1752,-27.0449 3.6437,-73.8886 4.82008,-46.8449 -6.163,-77.5867 -12.9933,-87.5694 -6.8315,-9.98269 5.46142,-17.6386 29.1685,-18.9213 23.7071,-1.2815 19.448,-0.4063 18.2953,9.16064 -1.15276,9.56576 -9.44174,4.67481 -8.97284,16.9347 0.470079,12.261 13.0866,38.4863 14.2689,74.6871 1.18347,36.1996 8.8004,55.7079 8.8004,55.7079 0,0 8.05749,-23.1543 41.739,-31.2638 33.6827,-8.11064 36.2599,11.8961 71.8005,-0.146457 35.5418,-12.0425 34.0004,-38.3008 20.9599,-47.3764 -13.0394,-9.0756 -21.8882,4.54843 -21.8882,4.54843 0,0 6.85512,-24.6839 30.2847,-12.1276 23.4295,12.5563 14.7933,35.9138 -10.0701,55.9134 -24.8634,19.9996 -58.6241,33.3721 -58.6241,33.3721 0,0 23.7874,-6.53623 56.2004,7.38544 32.4118,13.9228 29.987,54.6768 49.7339,67.8981 19.7469,13.2201 40.1823,-4.54252 36.2457,-15.5634 -3.9378,-11.0209 -15.0284,-10.9831 -15.0284,-10.9831 0,0 19.2449,-0.989765 24.0508,14.2961 4.80591,15.2858 -19.5992,29.2406 -44.2642,31.5118 -24.665,2.27008 -47.1898,-22.3819 -69.7973,-50.9233 -22.6075,-28.5425 -51.9933,-28.5047 -76.4469,-25.6536 -24.4536,2.85 -26.4792,8.14961 -26.4792,8.14961 0,0 31.1221,-0.657875 37.3866,36.9957 6.26457,37.6536 -33.2457,55.0382 -35.178,82.5414 -1.93347,27.5044 22.4906,41.0114 22.4906,41.0114 0,0 -48.9993,-7.34056 -54.1465,-38.2004 -5.14843,-30.8599 19.7091,-50.8619 -0.94252,-61.1374 -20.6528,-10.2756 -28.0713,-29.2075 -28.0713,-29.2075 0,0 -8.74135,-7.99016 -27.6355,17.7213 -18.8941,25.7114 -21.9095,57.5256 -6.50197,76.8721 15.4075,19.3465 34.8366,62.7579 21.6449,82.5119 -13.1929,19.754 -38.5701,-1.91221 -38.5701,-1.91221 0,0 20.6126,8.32796 28.1799,-1.56851 7.56851,-9.89646 -8.78623,-37.3996 -37.9784,-64.2485 -29.191,-26.85 -37.3642,-71.6693 -14.948,-105.832 22.4173,-34.1622 60.1453,-52.8768 73.643,-40.6961z"/>
    <path class="fil29" d="M237.131 236.263c0,0 -6.3626,29.739 11.935,38.8973 18.2953,9.15827 31.5815,11.5996 22.7788,36.3284 -8.80158,24.7264 -9.99568,41.5028 -2.37756,51.8563 7.62048,10.3571 32.3764,21.1347 32.3764,21.1347 0,0 -28.9406,-15.1642 -28.2449,-36.9945 0.694489,-21.8303 4.9878,-29.9055 15.3236,-55.8331 10.337,-25.9264 3.41811,-30.652 -8.41772,-38.191 -11.8358,-7.53898 -15.4914,-32.3894 -43.3737,-17.198z"/>
    <path class="fil30" d="M221.563 228.418c0,0 -13.2496,-9.6508 -39.1453,12.0236 -25.8945,21.6756 -40.8839,52.8603 -35.426,80.0127 5.45906,27.1547 16.3323,39.2894 31.8331,54.3508 15.502,15.0602 20.3669,24.1099 20.3669,24.1099 0,0 -7.5815,-22.141 -19.2402,-43.8059 -11.661,-21.6638 -19.9299,-48.4642 -2.12835,-75.4241 17.8016,-26.9575 39.5008,-40.2697 43.7398,-51.267z"/>
    <path class="fil31" d="M282.985 202.878c0,0 7.93229,-19.8331 36.5244,-29.3977 28.591,-9.56339 35.6504,1.97244 47.2382,2.41181 11.5866,0.440552 25.6961,-3.94607 25.6961,-3.94607 0,0 -16.6878,10.8662 -50.8666,23.0764 -34.1788,12.2126 -60.4949,14.4201 -58.5922,7.85552z"/>
    <path class="fil32" d="M309.826 220.426c0,0 33.7618,-13.3713 65.0575,7.4941 31.2933,20.8618 35.9658,43.0618 54.7146,55.3264 18.7524,12.2658 34.4965,11.5441 34.4965,11.5441 0,0 -26.7544,-4.50237 -37.252,-22.004 -10.5,-17.498 -29.4532,-52.2508 -50.5996,-58.4315 -21.1465,-6.18071 -53.1378,-5.21103 -66.417,6.07087z"/>
    <path class="fil33" d="M253.179 53.6374c-0.745276,-3.00236 -10.702,-8.92914 -23.054,-4.18937 -12.3484,4.73977 -11.3539,10.2685 -5.78623,15.7973 5.5689,5.53229 13.2118,16.8591 13.7835,47.7178 0.574016,30.8622 -1.82008,50.6823 -1.78701,74.5382 0.034252,23.8547 3.68032,34.9796 3.68032,34.9796 0,0 4.42796,-42.4524 8.89489,-87.5363 4.47166,-45.0851 -3.95906,-61.3654 -12.1146,-69.567 -8.15788,-8.20394 14.8736,-4.98898 16.3831,-11.7402z"/>
    <path class="fil9" d="M188.6 354.637c0,0 -19.3973,-24.1311 -3.12874,-54.4666 16.2673,-30.3355 41.752,-48.5953 41.752,-48.5953 0,0 1.38898,-3.44055 3.74055,-11.4732 2.35158,-8.03386 5.99528,-15.2173 21.6355,-16.2295 15.6402,-1.01221 31.6831,11.8925 31.6831,11.8925 0,0 22.1209,1.58386 32.4992,26.974 10.3784,25.3914 0.657875,39.3296 -15.2669,54.1737 -15.9248,14.8441 -17.8984,40.4008 -17.8984,40.4008 0,0 10.1221,-40.2355 20.1095,-50.6729 9.98859,-10.4386 14.9469,-23.9823 8.44135,-41.2737 -6.5067,-17.2914 -30.137,-25.852 -30.137,-25.852 0,0 -15.0721,-17.504 -29.1213,-14.7744 -14.048,2.72953 -25.3205,12.3106 -29.7461,19.1268 -4.42441,6.81615 -4.02992,7.00276 -4.02992,7.00276 0,0 -26.7685,21.9827 -39.8705,50.2087 -13.102,28.2248 8.86064,54.0567 9.3378,53.5583z"/>
    <path class="fil9" d="M256.265 61.3607c0,0 -5.83229,4.70079 1.0252,24.8114 6.85749,20.1118 11.4602,34.8154 11.6563,57.306 0.196063,22.4917 0.612993,37.3831 4.03701,51.5292 3.42402,14.1449 9.4252,17.2311 11.1012,18.2669 1.67717,1.03465 18.2256,1.65945 53.8311,-12.0402 35.6044,-13.6996 52.9441,-17.2807 74.6186,-36.1418 21.6744,-18.8599 21.711,-35.2205 13.1587,-43.6099 -8.55119,-8.38938 -9.89646,-7.5815 -9.89646,-7.5815 0,0 17.4721,6.84095 16.9795,20.0917 -0.49252,13.2508 -14.615,34.9843 -35.5713,46.7185 -20.9551,11.7343 -49.4221,22.5567 -79.2934,31.2662 -29.8713,8.71064 -40.1563,10.0949 -49.3052,0.940158 -9.14764,-9.15473 -5.64213,-35.9138 -5.26654,-67.7634 0.375591,-31.8508 -5.85709,-45.6485 -9.73347,-58.3205 -3.87638,-12.6732 3.34016,-25.389 2.65866,-25.4729z"/>
    <path class="fil9" d="M377.237 210.73c0,0 19.1008,1.34764 34.6477,22.9335 15.5469,21.587 25.0713,43.6819 41.4036,51.9083 16.3335,8.22638 25.0004,4.14685 25.0004,4.14685 0,0 -26.6268,-3.23386 -38.6622,-24.1122 -12.0343,-20.8795 -34.5603,-54.6851 -62.3894,-54.8764z"/>
    <path class="fil9" d="M190.323 357.789c0,0 24.874,32.5973 26.7614,53.8689 1.8874,21.2705 0.270473,29.3634 -9.97442,31.8213 -10.2449,2.45788 -21.1949,-2.94921 -21.1949,-2.94921 0,0 16.5284,2.51221 21.5941,0.701575 5.06575,-1.80945 11.9008,-8.76024 6.89056,-29.517 -5.01142,-20.7555 -24.0768,-53.9256 -24.0768,-53.9256z"/>
    <path class="fil9" d="M491.04 254.038c0,0 6.72756,3.63425 9.3189,11.3138 2.59252,7.67835 -0.184252,14.2559 -8.96103,19.6559 -8.77678,5.40119 -29.504,12.8067 -29.504,12.8067 0,0 21.5138,-0.138189 36.2965,-12.3638 14.7827,-12.2268 8.91024,-26.1319 -7.1504,-31.4126z"/>
    <path class="fil34" d="M219.647 278.881c-9.17835,2.07756 -22.6583,31.8697 -15.6189,54.1111 7.03819,22.2414 12.2209,34.2095 31.3902,57.4985 19.1717,23.289 25.5921,71.6256 41.7886,140.578 16.1977,68.9552 40.7114,90.332 58.5886,153.864 17.876,63.5315 19.787,85.7528 2.68937,142.493 -17.1,56.7402 -12.3638,59.8701 -9.84095,93.9284 2.5252,34.0571 0.0838583,54.2174 31.4646,27.3343 31.3819,-26.8843 27.1051,-42.2315 29.8477,-98.6646 2.74134,-56.4331 -38.3327,20.9268 -29.9374,-23.0587 8.39528,-43.9855 41.6811,-99.2753 39.7618,-189.003 -1.91929,-89.7237 -36.6662,-119.503 -81.8044,-181.733 -45.1382,-62.2312 -75.4536,-52.6063 -76.7552,-96.7442 -1.30394,-44.1378 -2.55827,-81.3697 -21.574,-80.6044z"/>
    <path class="fil2" d="M371.253 244.315c0,0 15.0496,48.8705 39.0331,95.7544 23.9835,46.8839 43.6878,78.4205 43.6878,78.4205 0,0 -23.9067,-43.2957 -27.8044,-74.4508 -3.89882,-31.1563 -23.1473,-74.9091 -54.9166,-99.7241z"/>
    <path class="fil35" d="M376.76 317.088c0,0 48.7276,79.03 63.2386,102.777 14.5122,23.7461 19.3996,34.0559 18.2646,98.354 -1.13858,64.2981 0.466536,72.1619 0.466536,72.1619 0,0 -9.93898,-78.4229 -30.867,-133.631 -20.9303,-55.2071 -51.1028,-139.662 -51.1028,-139.662z"/>
    <path class="fil36" d="M219.261 291.535c-2.59134,0.324803 -11.0445,15.3673 -7.59449,38.4851 3.44882,23.1177 15.0118,40.3311 18.3236,40.35 3.31299,0.0200788 4.71615,-47.3788 -10.7291,-78.8351z"/>
    <path class="fil37" d="M218.273 308.12c-2.05748,0.135827 -3.78544,36.5268 3.4689,36.6402 7.25552,0.113386 3.17717,-35.7071 -3.4689,-36.6402z"/>
    <path class="fil38" d="M335.282 874.006c-2.2878,10.4539 -2.43307,62.3008 4.85433,67.526 7.28741,5.2252 27.5811,-18.8882 32.3044,-49.4847 4.72796,-30.5965 -24.4193,-59.9315 -37.1587,-18.0414z"/>
    <path class="fil39" d="M346.501 923.665c-1.63583,-1.21772 -8.63268,-47.7189 5.78504,-51.9674 14.4142,-4.24961 7.69961,54.3674 -5.78504,51.9674z"/>
    <path class="fil40" d="M243.039 239.451c-2.0752,3.44646 -1.15984,21.1547 8.60906,25.7811 9.77009,4.62638 9.08387,-6.55158 6.11103,-15.7099 -2.97166,-9.15946 -10.8366,-12.6626 -14.7201,-10.0713z"/>
    <path class="fil17" d="M300.561 190.942c-0.0578741,-2.68583 10.0536,-11.4083 23.5158,-14.1142 13.4634,-2.70473 10.1138,12.3201 -23.5158,14.1142z"/>
    <path class="fil18" d="M283.735 485.307c-0.990946,3.96733 14.0091,67.8662 36.7134,114.559 22.7043,46.6926 33.1229,72.4808 35.4886,82.4753 2.36693,9.9945 -2.14134,-41.3918 -12.6366,-79.1965 -10.4953,-37.8048 3.54449,-27.163 15.411,-9.12048 11.8677,18.0437 13.9996,-16.4433 -23.0103,-61.0359 -37.0111,-44.5926 -56.7378,-77.8949 -51.9662,-47.6811z"/>
    <path class="fil41" d="M343.259 249.04c7.82008,-3.39567 23.6918,9.00001 30.8693,42.5717 7.17402,33.5717 9.61891,55.5827 6.72048,62.641 -2.89843,7.05827 -49.3016,-99.2209 -37.5898,-105.213z"/>
   </g>
   <g>
    <g>
     <path class="fil20 str1" d="M385.303 369.433c-22.5189,2.10827 -39.0898,21.874 -37.0051,44.1355 2.08465,22.2626 22.0358,38.6079 44.5536,36.4996 22.5213,-2.10709 39.0922,-21.874 37.0075,-44.1355 -2.08347,-22.2638 -22.0358,-38.6079 -44.5559,-36.4996z"/>
     <path id="1" class="fil42" d="M385.303 369.433c-22.5189,2.10827 -39.0898,21.874 -37.0051,44.1355 2.08465,22.2626 22.0358,38.6079 44.5536,36.4996 22.5213,-2.10709 39.0922,-21.874 37.0075,-44.1355 -2.08347,-22.2638 -22.0358,-38.6079 -44.5559,-36.4996z"/>
    </g>
    <path class="fil43" d="M401.449 381.265c-12.8599,1.20591 -22.311,12.6083 -21.1063,25.4669 1.20236,12.8599 12.6083,22.311 25.4669,21.1063 12.8587,-1.20236 22.311,-12.6083 21.1063,-25.4669 -1.20473,-12.8587 -12.6083,-22.311 -25.4669,-21.1063z"/>
    <circle class="fil21" transform="matrix(-0.412385 0.0386099 0.0386099 0.412385 403.629 404.551)" r="32.7874"/>
    <circle class="fil23" transform="matrix(-0.528616 0.0494921 0.0494921 0.528616 410.965 394.742)" r="10.9287"/>
    <path class="fil44" d="M430.757 394.313c0,0 -16.2059,-1.37126 -43.5626,7.52127 -27.3555,8.89253 -39.9603,20.9244 -39.9603,20.9244 0,0 -11.7461,-42.4914 27.1618,-55.363 38.9079,-12.8693 56.3611,26.9173 56.3611,26.9173z"/>
    <g>
     <path class="fil20 str1" d="M299.744 399.237c-22.5189,2.10709 -39.0898,21.8717 -37.0075,44.1355 2.08465,22.2638 22.037,38.6079 44.5583,36.4996 22.5177,-2.10827 39.0898,-21.874 37.0051,-44.1378 -2.08465,-22.2614 -22.0358,-38.6055 -44.5559,-36.4973z"/>
     <path id="1" class="fil45" d="M299.744 399.237c-22.5189,2.10709 -39.0898,21.8717 -37.0075,44.1355 2.08465,22.2638 22.037,38.6079 44.5583,36.4996 22.5177,-2.10827 39.0898,-21.874 37.0051,-44.1378 -2.08465,-22.2614 -22.0358,-38.6055 -44.5559,-36.4973z"/>
    </g>
    <path class="fil46" d="M316.145 411.785c-12.8587,1.20473 -22.311,12.6083 -21.1051,25.4669 1.20236,12.861 12.6059,22.311 25.4669,21.1087 12.8587,-1.20591 22.311,-12.6083 21.1051,-25.4693 -1.20473,-12.8575 -12.6083,-22.3087 -25.4669,-21.1063z"/>
    <circle class="fil21" transform="matrix(-0.412385 0.0386099 0.0386099 0.412385 318.326 435.072)" r="32.7874"/>
    <circle class="fil23" transform="matrix(-0.528616 0.0494921 0.0494921 0.528616 325.662 425.262)" r="10.9287"/>
    <path class="fil47" d="M345.196 424.116c0,0 -16.2036,-1.37126 -43.5615,7.52008 -27.3579,8.89253 -39.9591,20.9268 -39.9591,20.9268 0,0 -11.7484,-42.4949 27.1607,-55.3642 38.9079,-12.8717 56.3599,26.9173 56.3599,26.9173z"/>
   </g>
   <path class="fil48" d="M295.974 507.866c0,0 12.228,16.728 35.537,18.5587 23.3126,1.82599 51.1028,-4.58622 81.5635,-16.6406 30.4618,-12.0567 36.2008,-21.1382 36.2008,-21.1382 0,0 7.30158,9.50079 -8.97993,20.7886 -16.2815,11.2866 -51.2705,23.7886 -89.1556,31.4634 -37.8874,7.67599 -56.4993,-2.86536 -55.1658,-33.0319z"/>
   <path class="fil21" d="M297.69 511.474c0,0 -2.04567,40.2331 56.8489,25.4528 58.8934,-14.7815 95.4591,-31.7906 92.6528,-42.8693 -4.20591,10.0973 -69.8693,35.9469 -104.985,37.1634 -35.1154,1.21654 -44.4957,-18.4807 -44.517,-19.7469z"/>
   <path class="fil21" d="M334.205 339.344c-5.17205,-2.44961 -0.765355,-27.2953 30.4996,-18.5091 31.265,8.78505 43.2071,20.8713 42.9839,24.0886 -0.223229,3.21733 -57.2457,-23.55 -73.4835,-5.57953z"/>
  </g>
  <g>
   <path class="fil49" d="M454.923 71.7579c2.20866,-9.11812 5.59489,-14.3788 14.7378,-17.1768 10.0949,-3.09803 20.4059,1.31102 23.0173,9.83505 4.72796,15.4382 -8.82875,36.4772 -22.3866,57.5174 -23.0173,-9.83387 -46.0323,-19.6736 -50.7591,-35.1107 -2.6126,-8.51812 3.46418,-17.948 13.5579,-21.0402 9.1441,-2.79921 14.8961,-0.34252 21.8327,5.9752zm4.76693 -10.9571m24.2894 -5.65748m4.36536 35.9327m-50.2902 15.4016m-16.5095 -32.211m23.2866 -8.91497"/>
   <path class="fil50" d="M486.721 57.7926c0,0 10.7457,13.5839 -0.259843,33.8303 -11.0055,20.2465 -16.5685,28.4551 -16.5685,28.4551 0,0 20.2158,-34.3181 16.8284,-62.2855z"/>
   <path class="fil18" d="M456.688 75.254c0,0 -11.211,-10.8047 -21.6803,-8.29961 -10.4705,2.50512 -16.2945,12.7264 -9.67678,24.5858 6.6189,11.8595 18.6874,15.7205 27.3626,19.3914 8.6752,3.67205 14.9929,5.95512 14.9929,5.95512 0,0 9.17009,-17.9268 12.0165,-32.4225 2.84528,-14.4957 2.72953,-28.3465 -9.12166,-28.0559 -11.85,0.28937 -13.7811,18.6354 -13.8933,18.8457z"/>
   <path class="fil51" d="M456.795 79.6158c0,0 -16.1988,-11.0339 -24.2244,-8.57599 -8.0256,2.45906 -13.5839,19.2803 5.48032,28.2059 19.0642,8.9256 26.0114,11.5441 26.0114,11.5441 0,0 5.49804,-18.7358 6.79016,-28.2733 1.29331,-9.53623 -8.08347,-14.9256 -14.0575,-2.90079z"/>
  </g>
  <g>
   <path class="fil49" d="M574.772 120.845c6.43819,-4.61457 11.5099,-6.10867 18.9,-2.85591 8.16379,3.58465 12.326,12.091 9.29765,18.9839 -5.48622,12.4795 -25.7634,18.4606 -46.0347,24.4406 -9.30119,-18.9839 -18.5929,-37.9689 -13.1079,-50.4485 3.03307,-6.88819 12.1146,-9.57048 20.276,-5.98111 7.39371,3.25394 9.71694,7.99961 10.6689,15.861zm9.09213 -4.37717m18.6508 9.77481m-17.0197 25.3902m-40.6583 -17.8831m7.20355 -29.7047m19.8106 7.13977"/>
   <path class="fil50" d="M602.81 129.449c0,0 -0.617717,14.6138 -18.8221,21.4949 -18.2043,6.87993 -26.2878,9.06142 -26.2878,9.06142 0,0 31.8544,-10.8 45.1099,-30.5563z"/>
   <path class="fil18" d="M573.974 124.055c0,0 -1.21299,-13.0925 -9.28938,-17.2642 -8.07757,-4.17166 -17.4402,-0.84567 -19.748,10.389 -2.30669,11.2347 3.28347,20.3587 6.8067,27.4914 3.52441,7.13268 6.30591,12.0768 6.30591,12.0768 0,0 15.7512,-6.40867 25.565,-14.1106 9.81379,-7.70079 17.3776,-16.624 9.6378,-22.9736 -7.73859,-6.34961 -19.0914,4.31929 -19.278,4.39134z"/>
   <path class="fil51" d="M571.636 126.905c0,0 -4.27441,-15.991 -10.7634,-18.8445 -6.48898,-2.85355 -19.3205,4.84016 -12.0496,21.0614 7.26969,16.2225 10.2697,21.7276 10.2697,21.7276 0,0 13.8484,-8.9504 19.9347,-14.3374 6.08623,-5.38701 3.06142,-14.0043 -7.39134,-9.60709z"/>
  </g>
  <g>
   <path class="fil49" d="M482.993 337.196c4.37717,-2.59607 7.69725,-3.26693 12.2457,-0.777166 5.01142,2.74725 7.20001,8.41536 4.87441,12.6543 -4.20118,7.6689 -17.4969,10.3583 -30.7819,13.0488 -4.88268,-12.6543 -9.76654,-25.304 -5.55945,-32.9717 2.32205,-4.23544 8.27599,-5.44016 13.2945,-2.68819 4.53544,2.48858 5.7626,5.6504 5.92678,10.7339zm6.0567 -2.29134m11.3752 7.28505m-12.2941 15.2764m-24.9886 -13.6984m6.26339 -18.5799m12.2622 5.66811"/>
   <path class="fil50" d="M500.435 344.254c0,0 -1.21063,9.30591 -13.2284,12.6862 -12.0189,3.3815 -17.3067,4.3252 -17.3067,4.3252 0,0 20.961,-5.12481 30.5351,-17.0114z"/>
   <path class="fil18" d="M482.306 339.198c0,0 -0.0437008,-8.43544 -4.97244,-11.5524 -4.92993,-3.11693 -11.0988,-1.51417 -13.2,5.53701 -2.10236,7.05119 0.960237,13.1953 2.81457,17.9492 1.85433,4.75512 3.35551,8.07048 3.35551,8.07048 0,0 10.4244,-3.21614 17.126,-7.59095 6.70276,-4.37363 12.0343,-9.65434 7.44213,-14.1437 -4.59095,-4.49055 -12.4417,1.69488 -12.5658,1.73032z"/>
   <path class="fil51" d="M480.654 340.888c0,0 -1.83898,-10.4575 -5.82756,-12.6437 -3.9874,-2.18622 -12.6165,2.01496 -8.87599,12.7878 3.74055,10.7728 5.3504,14.4591 5.3504,14.4591 0,0 9.35079,-4.94764 13.5402,-8.0504 4.19055,-3.10276 2.73898,-8.77914 -4.18701,-6.55276z"/>
  </g>
  <g>
   <path class="fil49" d="M488.286 188.635c1.0311,-6.07323 3.00709,-9.67796 8.87599,-11.9327 6.46772,-2.4874 13.4221,-0.0767717 15.528,5.38819 3.8067,9.89883 -4.11378,24.3071 -12.0284,38.7154 -15.5374,-5.38937 -31.0713,-10.7776 -34.8733,-20.6776 -2.10236,-5.46615 1.45039,-11.9209 7.91694,-14.4083 5.86536,-2.25236 9.75237,-0.904725 14.5807,2.91496zm2.62087 -7.40316m15.6602 -4.81772m4.50591 23.3457m-32.2512 12.3992m-12.2941 -20.3445m14.8571 -6.91182"/>
   <path class="fil50" d="M508.482 178.027c0,0 7.66418,8.40827 1.38071,22.1788 -6.28229,13.7717 -9.55158,19.4043 -9.55158,19.4043 0,0 11.674,-23.413 8.17087,-41.5831z"/>
   <path class="fil18" d="M489.604 190.844c0,0 -7.84134,-6.56575 -14.5878,-4.44449 -6.74528,2.12126 -10.0925,9.08623 -5.21221,16.5543 4.87914,7.46812 12.965,9.4441 18.8173,11.452 5.85355,2.00788 10.0973,3.21496 10.0973,3.21496 0,0 5.18741,-12.1677 6.38741,-21.7961 1.2,-9.62835 0.488977,-18.6992 -7.2626,-17.9658 -7.75158,0.733465 -8.1756,12.8433 -8.23938,12.985z"/>
   <path class="fil51" d="M489.874 193.697c0,0 -11.1201,-6.4878 -16.2662,-4.50827 -5.14725,1.97835 -8.01733,13.2555 4.88268,18.2303 12.9012,4.97481 17.5736,6.37205 17.5736,6.37205 0,0 2.7437,-12.5291 3.15355,-18.8374 0.409843,-6.30827 -5.98111,-9.40985 -9.34371,-1.25669z"/>
  </g>
 </g>
</svg>
